<?xml version="1.0" encoding="utf-8"?>
<!-- Generator: Adobe Illustrator 27.6.1, SVG Export Plug-In . SVG Version: 6.00 Build 0)  -->
<svg version="1.1" xmlns="http://www.w3.org/2000/svg" xmlns:xlink="http://www.w3.org/1999/xlink" x="0px" y="0px"
	 viewBox="0 0 24 24" style="enable-background:new 0 0 24 24;" xml:space="preserve">
<style type="text/css">
	.st0{display:none;}
	.st1{display:inline;}
	.st2{display:inline;fill:#FFFFFF;}
	.st3{display:inline;opacity:0.18;fill:#FFFFFF;stroke:#FFFFFF;stroke-miterlimit:10;}
	.st4{fill:#FFFFFF;}
	.st5{display:inline;fill:#EEEEEE;}
	.st6{display:inline;fill:#386DB4;stroke:#FFFFFF;stroke-width:3;stroke-miterlimit:10;}
	.st7{fill:none;stroke:#000000;stroke-width:4;stroke-miterlimit:10;}
	.st8{display:inline;fill:#F6F6F6;stroke:#F6F6F6;stroke-miterlimit:10;}
	.st9{fill:#185595;}
	.st10{display:inline;fill:#F9AF1C;}
	.st11{fill:#F9AF1C;}
	.st12{fill:none;stroke:#F39200;stroke-miterlimit:10;}
	.st13{fill:none;}
	.st14{fill:#1453A0;}
	.st15{fill:#F6C240;}
	.st16{fill:none;stroke:#FFFFFF;stroke-width:14;stroke-miterlimit:10;}
	.st17{display:inline;fill:none;stroke:#FFFFFF;stroke-width:13;stroke-miterlimit:10;}
	.st18{display:inline;fill:#FFFFFF;stroke:#000000;stroke-width:6;stroke-miterlimit:10;}
	.st19{display:inline;fill:#FFFFFF;stroke:#FFFFFF;stroke-width:5;stroke-miterlimit:10;}
	.st20{stroke:#FFFFFF;stroke-width:2;stroke-miterlimit:10;}
	.st21{stroke:#000000;stroke-width:6;stroke-miterlimit:10;}
	.st22{display:inline;fill:#EDEDED;}
	.st23{display:inline;fill:none;stroke:#000000;stroke-width:12;stroke-miterlimit:10;}
	.st24{display:inline;stroke:#EDEDED;stroke-width:6;stroke-miterlimit:10;}
	.st25{display:inline;stroke:#000000;stroke-width:5;stroke-miterlimit:10;}
	.st26{fill:#FFFFFF;stroke:#000000;stroke-width:2;stroke-miterlimit:10;}
	.st27{fill:#DADADA;}
	.st28{fill:#1E1E1E;}
	.st29{fill:url(#SVGID_1_);}
	.st30{fill:none;stroke:#000000;stroke-width:7;stroke-miterlimit:10;}
	.st31{fill:#EDEDED;}
	.st32{fill:#469BA3;}
	.st33{fill:#B2B2B2;}
	.st34{display:inline;fill:#A36C46;}
	.st35{display:inline;fill:#469BA3;stroke:#DADADA;stroke-width:3;stroke-miterlimit:10;}
	.st36{fill:none;stroke:#FFFFFF;stroke-miterlimit:10;}
	.st37{stroke:#EDEDED;stroke-width:6;stroke-miterlimit:10;}
	.st38{display:inline;fill:none;stroke:#D1B303;stroke-width:12;stroke-miterlimit:10;}
	.st39{display:inline;fill:#1D71B8;stroke:#EDEDED;stroke-width:6;stroke-miterlimit:10;}
	.st40{display:inline;fill:#A36C46;stroke:#78472B;stroke-width:5;stroke-miterlimit:10;}
	.st41{display:inline;fill:none;stroke:#683C11;stroke-width:5;stroke-miterlimit:10;}
	.st42{fill:url(#SVGID_00000142169615006347100860000015499997150602118032_);}
	.st43{display:none;fill:#FFFFFF;}
</style>
<g id="final_black" class="st0">
	<rect x="-1021.467" y="242.359" class="st1" width="400" height="400"/>
	<path class="st2" d="M-723.981,536.304c-27.871,23.277-66.003,34.674-106.678,26.451c-48.824-9.87-87.105-48.45-96.686-97.331
		c-15.788-80.549,45.284-150.948,122.964-150.948c30.483,0,58.401,10.843,80.124,28.871c-11.046,7.969-20.657,17.789-28.39,29.003
		c-0.451,0.654-1.343,0.8-1.982,0.327c-13.546-10.036-30.243-16.068-48.347-16.365c-46.856-0.77-85.543,37.687-85.041,84.546
		c0.491,45.817,37.71,82.732,83.636,82.732c18.733,0,36.017-6.142,49.95-16.525c0.637-0.475,1.53-0.331,1.983,0.322
		C-744.688,518.576-735.044,528.37-723.981,536.304z"/>
	<path class="st2" d="M-678.906,439.941c0,7.113-0.587,14.084-1.727,20.877c-4.131,24.741-15.5,47.024-31.854,64.598
		c-11.689-7.87-21.678-18.081-29.299-29.958c0.846-0.935,1.656-1.896,2.439-2.876c7.443-9.179,12.971-19.969,15.998-31.765h-59.153
		c-5.033,0-9.113-4.08-9.113-9.113v-22.727c0-5.033,4.08-9.113,9.113-9.113H-680.5C-679.449,426.4-678.906,433.104-678.906,439.941z
		"/>
	<circle class="st2" cx="-699.375" cy="547.333" r="7.312"/>
	<circle class="st3" cx="-717.472" cy="386.339" r="26.462"/>
	<g class="st1">
		<path class="st4" d="M-722.179,400.125c-1.59,0-2.844-0.194-3.761-0.584c-0.918-0.389-1.577-0.976-1.977-1.759
			s-0.599-1.834-0.599-3.151v-4.267c0-0.868-0.084-1.547-0.251-2.036c-0.167-0.488-0.415-0.83-0.744-1.025
			c-0.329-0.194-0.779-0.292-1.35-0.292v-1.646c0.57,0,1.021-0.097,1.35-0.292c0.329-0.194,0.577-0.536,0.744-1.025
			c0.167-0.488,0.251-1.168,0.251-2.036v-4.267c0-1.317,0.199-2.367,0.599-3.15c0.399-0.784,1.059-1.37,1.977-1.76
			c0.917-0.389,2.171-0.583,3.761-0.583h0.303v1.631c-0.624,0-1.103,0.056-1.436,0.165c-0.334,0.11-0.604,0.287-0.811,0.531
			c-0.206,0.245-0.367,0.627-0.48,1.146c-0.114,0.52-0.172,1.258-0.172,2.216v2.799c0,0.979-0.088,1.797-0.263,2.455
			c-0.176,0.659-0.477,1.223-0.902,1.692c-0.427,0.469-1.008,0.858-1.746,1.167v0.27c0.738,0.3,1.326,0.699,1.766,1.198
			c0.438,0.499,0.739,1.075,0.902,1.729c0.162,0.654,0.243,1.45,0.243,2.388v2.8c0,0.758,0.035,1.372,0.105,1.841
			c0.07,0.47,0.167,0.836,0.29,1.101s0.276,0.474,0.461,0.629c0.185,0.154,0.426,0.274,0.725,0.359
			c0.299,0.084,0.737,0.127,1.317,0.127v1.632H-722.179z"/>
		<path class="st4" d="M-713.644,387.071h-6.243v-3.144h6.243V387.071z"/>
		<path class="st4" d="M-711.352,372.251c1.59,0,2.843,0.194,3.761,0.583c0.918,0.39,1.576,0.976,1.977,1.76
			c0.399,0.783,0.599,1.833,0.599,3.15v4.267c0,0.868,0.084,1.548,0.251,2.036c0.166,0.489,0.414,0.831,0.744,1.025
			c0.329,0.195,0.779,0.292,1.35,0.292v1.646c-0.57,0-1.021,0.098-1.35,0.292c-0.33,0.195-0.578,0.537-0.744,1.025
			c-0.167,0.489-0.251,1.168-0.251,2.036v4.267c0,1.317-0.199,2.368-0.599,3.151c-0.4,0.783-1.059,1.37-1.977,1.759
			c-0.918,0.39-2.171,0.584-3.761,0.584h-0.303v-1.632c0.58,0,1.019-0.043,1.317-0.127c0.298-0.085,0.54-0.205,0.725-0.359
			c0.185-0.155,0.338-0.364,0.461-0.629s0.22-0.631,0.29-1.101c0.069-0.469,0.105-1.083,0.105-1.841v-2.8
			c0-0.978,0.087-1.796,0.263-2.455c0.176-0.658,0.477-1.223,0.902-1.691s1.008-0.858,1.746-1.168v-0.27
			c-0.738-0.299-1.326-0.698-1.766-1.197s-0.74-1.075-0.902-1.729c-0.162-0.653-0.243-1.449-0.243-2.388v-2.799
			c0-0.759-0.036-1.372-0.105-1.842c-0.07-0.469-0.167-0.836-0.29-1.1c-0.123-0.265-0.276-0.475-0.461-0.629
			c-0.185-0.155-0.427-0.274-0.725-0.359c-0.299-0.085-0.737-0.128-1.317-0.128v-1.631H-711.352z"/>
	</g>
</g>
<g id="Ref" class="st0">
	<path class="st5" d="M-972.638,132.03v-247.326c0-9.292,7.318-16.834,16.335-16.834h267.331c9.017,0,16.335,7.542,16.335,16.834
		V132.03v2.461c0,18.44-67.165,33.379-150,33.379c-82.848,0-150-14.939-150-33.379V132.03z"/>
	<path class="st6" d="M-958.189,121.033v-223.502c0-8.397,6.613-15.213,14.761-15.213h241.58c8.148,0,14.761,6.815,14.761,15.213
		v223.502v2.224c0,16.664-60.695,30.163-135.551,30.163c-74.867,0-135.551-13.5-135.551-30.163V121.033z"/>
	<path class="st7" d="M-760.131,1.426c0,34.55-27.96,62.5-62.51,62.5c-34.55,0-62.5-27.95-62.5-62.5s27.95-62.51,62.5-62.51
		C-788.092-61.084-760.131-33.124-760.131,1.426z"/>
	<path class="st7" d="M-760.131,1.426c0,34.55-27.96,62.5-62.51,62.5c-34.55,0-62.5-27.95-62.5-62.5s27.95-62.51,62.5-62.51
		C-788.092-61.084-760.131-33.124-760.131,1.426z"/>
	<g>
		<path class="st8" d="M-840.067,40.231l-0.54-11.88c-5.76,10.08-19.439,16.02-35.818,16.02c-33.119,0-54.178-30.778-54.178-64.077
			c0-35.278,20.159-63.537,58.857-63.537c28.438,0,50.397,16.919,52.197,40.858h-25.198c-1.26-11.16-13.319-20.159-26.999-20.159
			c-19.979,0-33.299,15.479-33.299,43.918c0,19.619,9.899,41.938,33.119,41.938c16.379,0,29.158-12.42,29.158-27.359h-26.459
			v-19.979h49.858v64.258H-840.067z"/>
	</g>
</g>
<g id="final" class="st0">
	<path class="st9" d="M-742.241,114.229c-27.871,23.277-66.003,34.674-106.678,26.451c-48.824-9.87-87.105-48.45-96.686-97.331
		c-15.788-80.549,45.284-150.948,122.964-150.948c30.483,0,58.401,10.843,80.124,28.871c-11.046,7.969-20.657,17.789-28.39,29.003
		c-0.451,0.654-1.343,0.8-1.982,0.327c-13.546-10.036-30.243-16.068-48.347-16.365c-46.856-0.77-85.543,37.687-85.041,84.546
		c0.491,45.817,37.71,82.732,83.636,82.732c18.733,0,36.017-6.142,49.95-16.525c0.637-0.475,1.53-0.331,1.983,0.322
		C-762.948,96.502-753.304,106.295-742.241,114.229z"/>
	<path class="st10" d="M-697.167,17.867c0,7.113-0.588,14.084-1.727,20.877c-4.131,24.741-15.5,47.024-31.854,64.598
		c-11.689-7.87-21.678-18.081-29.299-29.958c0.846-0.935,1.656-1.896,2.439-2.876c7.443-9.179,12.971-19.969,15.998-31.765h-43.266
		V-2.209h86.114C-697.71,4.326-697.167,11.03-697.167,17.867z"/>
	<circle class="st11" cx="-822.638" cy="17.87" r="20.936"/>
	<line class="st12" x1="-820.893" y1="17.87" x2="-767.276" y2="17.87"/>
	<path class="st11" d="M-749.343,71.215h-71.59c-3.252,0-5.889-2.636-5.889-5.889v-71.59c0-3.252,2.636-5.889,5.889-5.889h71.59
		c3.252,0,5.889,2.636,5.889,5.889v71.59C-743.454,68.579-746.091,71.215-749.343,71.215z"/>
	<path class="st11" d="M-723.672,99.001h-16.457c-1.547,0-2.8-1.254-2.8-2.8V79.744c0-1.546,1.254-2.8,2.8-2.8h16.457
		c1.547,0,2.8,1.254,2.8,2.8v16.457C-720.872,97.747-722.125,99.001-723.672,99.001z"/>
	<path class="st11" d="M-710.632,3.883h-42c-3.947,0-7.147-3.2-7.147-7.147v-42c0-3.947,3.2-7.147,7.147-7.147h42
		c3.947,0,7.147,3.2,7.147,7.147v42C-703.486,0.684-706.685,3.883-710.632,3.883z"/>
</g>
<g id="Name_and_logo">
	<g>
		<g>
			<rect x="-978.723" y="313.606" class="st13" width="770.532" height="87.065"/>
			<path class="st14" d="M-869.527,400.542v-82.017h15.7l48.391,59.052h-7.616v-59.052h18.746v82.017h-15.583l-48.507-59.052h7.616
				v59.052H-869.527z"/>
			<path class="st14" d="M-774.856,400.542v-82.017h18.981v82.017H-774.856z"/>
			<path class="st14" d="M-697.175,401.948c-6.327,0-12.205-1.036-17.634-3.105c-5.43-2.068-10.135-5.018-14.118-8.846
				c-3.983-3.826-7.089-8.319-9.314-13.475c-2.227-5.155-3.34-10.817-3.34-16.989c0-6.169,1.113-11.833,3.34-16.988
				c2.226-5.155,5.349-9.646,9.373-13.475c4.021-3.826,8.729-6.775,14.118-8.846c5.39-2.069,11.287-3.105,17.692-3.105
				c7.106,0,13.533,1.23,19.274,3.691c5.74,2.46,10.562,6.074,14.47,10.838l-12.186,11.248c-2.812-3.202-5.937-5.604-9.373-7.206
				c-3.438-1.601-7.188-2.402-11.248-2.402c-3.828,0-7.343,0.626-10.545,1.875c-3.204,1.25-5.976,3.046-8.319,5.39
				c-2.343,2.344-4.159,5.117-5.448,8.318c-1.288,3.204-1.933,6.758-1.933,10.662c0,3.907,0.645,7.461,1.933,10.663
				c1.289,3.203,3.105,5.975,5.448,8.318c2.344,2.344,5.115,4.142,8.319,5.39c3.202,1.25,6.717,1.875,10.545,1.875
				c4.061,0,7.81-0.801,11.248-2.402c3.437-1.6,6.562-4.042,9.373-7.323l12.186,11.248c-3.907,4.766-8.729,8.398-14.47,10.896
				C-683.525,400.697-689.99,401.948-697.175,401.948z"/>
			<path class="st14" d="M-612.465,401.948c-6.484,0-12.479-1.055-17.985-3.164c-5.507-2.108-10.272-5.076-14.294-8.904
				c-4.024-3.826-7.147-8.319-9.373-13.475c-2.227-5.155-3.34-10.779-3.34-16.872c0-6.092,1.113-11.716,3.34-16.871
				c2.226-5.155,5.369-9.646,9.432-13.475c4.061-3.826,8.826-6.796,14.294-8.904c5.467-2.109,11.404-3.164,17.81-3.164
				c6.482,0,12.438,1.055,17.868,3.164c5.428,2.108,10.153,5.078,14.177,8.904c4.022,3.828,7.166,8.301,9.432,13.416
				c2.265,5.116,3.398,10.761,3.398,16.93c0,6.093-1.134,11.737-3.398,16.931c-2.266,5.196-5.409,9.687-9.432,13.475
				c-4.023,3.789-8.749,6.737-14.177,8.846C-600.145,400.894-606.061,401.948-612.465,401.948z M-612.582,385.779
				c3.671,0,7.048-0.625,10.135-1.875c3.085-1.248,5.8-3.046,8.144-5.39c2.343-2.344,4.159-5.115,5.448-8.318
				c1.288-3.202,1.933-6.756,1.933-10.663c0-3.904-0.645-7.458-1.933-10.662c-1.289-3.201-3.087-5.975-5.39-8.318
				c-2.306-2.344-5.021-4.14-8.144-5.39c-3.125-1.249-6.522-1.875-10.193-1.875c-3.673,0-7.05,0.626-10.135,1.875
				c-3.087,1.25-5.8,3.046-8.144,5.39c-2.343,2.344-4.159,5.117-5.448,8.318c-1.288,3.204-1.933,6.758-1.933,10.662
				c0,3.828,0.645,7.363,1.933,10.604c1.289,3.242,3.085,6.033,5.39,8.377c2.304,2.344,5.019,4.142,8.144,5.39
				C-619.653,385.154-616.255,385.779-612.582,385.779z"/>
			<path class="st14" d="M-553.414,400.542v-82.017h37.259c8.905,0,16.755,1.699,23.551,5.097s12.106,8.144,15.935,14.235
				c3.826,6.093,5.741,13.319,5.741,21.676c0,8.281-1.915,15.486-5.741,21.618c-3.828,6.133-9.139,10.896-15.935,14.294
				s-14.646,5.097-23.551,5.097H-553.414z M-534.433,384.959h17.341c5.466,0,10.211-1.034,14.235-3.105
				c4.022-2.068,7.147-5.018,9.373-8.846c2.227-3.826,3.34-8.318,3.34-13.475c0-5.231-1.113-9.742-3.34-13.532
				c-2.226-3.788-5.351-6.717-9.373-8.787c-4.024-2.069-8.77-3.105-14.235-3.105h-17.341V384.959z"/>
			<path class="st14" d="M-437.772,385.311h44.641v15.231h-63.505v-82.017h61.981v15.231h-43.117V385.311z M-439.178,351.566h39.485
				v14.763h-39.485V351.566z"/>
			<path class="st14" d="M-378.019,400.542v-82.017h35.502c7.341,0,13.668,1.191,18.98,3.573c5.312,2.384,9.412,5.8,12.303,10.252
				c2.889,4.453,4.335,9.766,4.335,15.936c0,6.092-1.446,11.347-4.335,15.759c-2.891,4.413-6.991,7.791-12.303,10.135
				c-5.312,2.343-11.64,3.515-18.98,3.515h-24.957l8.437-8.318v31.166H-378.019z M-359.037,371.484l-8.437-8.904h23.902
				c5.858,0,10.231-1.269,13.123-3.808c2.889-2.538,4.335-6.034,4.335-10.486c0-4.529-1.446-8.045-4.335-10.546
				c-2.892-2.498-7.265-3.749-13.123-3.749h-23.902l8.437-9.021V371.484z M-325.879,400.542l-20.505-29.761h20.271l20.738,29.761
				H-325.879z"/>
			<path class="st14" d="M-264.954,401.948c-6.562,0-12.85-0.879-18.863-2.637c-6.016-1.757-10.858-4.042-14.529-6.854l6.444-14.294
				c3.516,2.501,7.675,4.552,12.479,6.151c4.804,1.602,9.666,2.402,14.587,2.402c3.75,0,6.775-0.37,9.081-1.113
				c2.303-0.742,4.002-1.776,5.097-3.105c1.093-1.327,1.64-2.851,1.64-4.569c0-2.186-0.86-3.925-2.577-5.214
				c-1.719-1.289-3.983-2.343-6.796-3.163c-2.812-0.82-5.917-1.601-9.314-2.344c-3.398-0.741-6.796-1.658-10.193-2.753
				c-3.398-1.094-6.503-2.499-9.315-4.219c-2.812-1.717-5.097-3.983-6.854-6.795c-1.758-2.812-2.637-6.404-2.637-10.779
				c0-4.688,1.269-8.964,3.808-12.83c2.538-3.866,6.366-6.951,11.482-9.256c5.115-2.304,11.541-3.457,19.274-3.457
				c5.155,0,10.231,0.606,15.231,1.816c4.998,1.212,9.412,3.028,13.24,5.448l-5.858,14.411c-3.828-2.186-7.656-3.808-11.482-4.862
				c-3.828-1.055-7.577-1.582-11.248-1.582c-3.673,0-6.679,0.431-9.022,1.289c-2.343,0.86-4.023,1.974-5.038,3.34
				c-1.016,1.367-1.522,2.949-1.522,4.745c0,2.108,0.858,3.808,2.577,5.097c1.718,1.289,3.983,2.325,6.796,3.104
				c2.812,0.782,5.917,1.563,9.314,2.344c3.398,0.781,6.796,1.681,10.193,2.694c3.398,1.017,6.503,2.384,9.315,4.102
				c2.812,1.719,5.097,3.983,6.854,6.795c1.758,2.812,2.637,6.367,2.637,10.662c0,4.61-1.289,8.828-3.866,12.654
				c-2.578,3.828-6.426,6.913-11.541,9.256C-250.68,400.776-257.144,401.948-264.954,401.948z"/>
		</g>
		<g>
			<path class="st14" d="M-911.055,325.117l0.064,10.223c-0.444-0.411-0.905-0.808-1.377-1.188c-0.021-0.018-0.039-0.032-0.061-0.05
				c-0.401-0.322-0.808-0.633-1.227-0.934c-0.047-0.036-0.097-0.068-0.143-0.104c-4.868-3.477-10.828-5.519-17.27-5.519
				c-11.493,0-21.455,6.503-26.406,16.036l-10.857-10.856c7.977-12.087,21.681-20.053,37.263-20.053
				c10.295,0,19.767,3.477,27.315,9.322c0.208,0.161,0.415,0.326,0.622,0.49c0.447,0.358,0.887,0.726,1.316,1.102
				c0.537,0.465,1.062,0.944,1.574,1.438c0.004,0.004,0.011,0.007,0.014,0.011L-911.055,325.117z"/>
			<path class="st14" d="M-888.135,346.067l-14.843,0.09c0-0.003-0.003-0.007-0.003-0.01c-0.19-0.569-0.397-1.128-0.628-1.68
				l12.622-0.093l-0.045-6.932c0.097,0.203,0.19,0.397,0.279,0.604c0.521,1.183,0.99,2.397,1.404,3.632
				C-888.866,343.108-888.463,344.573-888.135,346.067z"/>
			<path class="st14" d="M-886.445,357.293c0,2.529-0.211,5.012-0.615,7.43c-0.004,0.039-0.011,0.075-0.021,0.114
				c-1.005,5.938-3.187,11.475-6.292,16.362c-0.157,0.254-0.322,0.504-0.486,0.751c-1.087,1.638-2.282,3.201-3.57,4.679
				c-0.322,0.368-0.651,0.733-0.984,1.091c-0.233,0.25-0.469,0.497-0.712,0.74c-0.848,0.873-1.735,1.713-2.658,2.515
				c-0.025,0.021-0.046,0.043-0.071,0.064c-0.186,0.161-0.368,0.318-0.558,0.472c-7.752,6.496-17.742,10.406-28.656,10.406
				c-15.582,0-29.286-7.966-37.263-20.053l10.853-10.856c4.954,9.533,14.916,16.036,26.41,16.036c6.768,0,13.006-2.254,18-6.056
				c0.029-0.021,0.057-0.043,0.086-0.064c1.163-0.891,2.257-1.864,3.273-2.915c0.44-0.451,0.858-0.912,1.266-1.388
				c2.876-3.359,5.011-7.369,6.16-11.783h-22.804v-14.723h38.067C-886.642,352.45-886.445,354.85-886.445,357.293z"/>
			<path class="st14" d="M-907.494,328.656l0.058,9.155c-0.006-0.006-0.016-0.016-0.023-0.022c-0.234-0.257-0.475-0.504-0.723-0.748
				c-0.18-0.18-0.363-0.353-0.549-0.527c-0.064-0.061-0.132-0.122-0.199-0.183l-0.058-9.18l9.723-0.074
				c0.154,0.148,0.305,0.296,0.459,0.447c0.215,0.209,0.424,0.421,0.633,0.636c0.135,0.138,0.267,0.276,0.395,0.418
				c0.003,0.003,0.006,0.006,0.006,0.01L-907.494,328.656z"/>
			<path class="st15" d="M-894.625,340.71c0.003,0.428-0.342,0.777-0.77,0.78l-6.013,0.044l-2.195,0.016
				c-0.429,0.003-0.779-0.342-0.781-0.771l-0.025-3.916l-0.029-4.511c-0.003-0.428,0.342-0.777,0.77-0.78l4.839-0.035l3.369-0.026
				c0.429-0.003,0.779,0.342,0.781,0.771l0.034,5.466v0.007L-894.625,340.71z"/>
		</g>
	</g>
</g>
<g id="genius_2" class="st0">
	<path class="st16" d="M-1099.087,106.867c59.469,7.269,105.534,52.259,105.534,113.693c0,66.423-53.85,125.956-120.273,125.956
		c-66.423,0-120.273-53.85-120.273-120.273c0-61.09,45.56-111.554,104.561-119.252"/>
	<rect x="-2170.042" y="-384.854" class="st1" width="400" height="400"/>
	<circle class="st17" cx="-1970.042" cy="-213.854" r="120.383"/>
	<path class="st18" d="M-1965.148-82.577h-9.787c-3.314,0-6-2.686-6-6v-73.787c0-3.314,2.686-6,6-6h9.787c3.314,0,6,2.686,6,6
		v73.787C-1959.148-85.264-1961.835-82.577-1965.148-82.577z"/>
	<path class="st18" d="M-1915.815-74.016v11.25c0,3.314-2.686,6-6,6h-96.701c-3.314,0-6-2.686-6-6v-11.25c0-3.314,2.686-6,6-6
		h96.701C-1918.502-80.016-1915.815-77.329-1915.815-74.016z"/>
	<path class="st18" d="M-1915.815-48.141v11.25c0,3.314-2.686,6-6,6h-96.701c-3.314,0-6-2.686-6-6v-11.25c0-3.314,2.686-6,6-6
		h96.701C-1918.502-54.141-1915.815-51.455-1915.815-48.141z"/>
	<circle class="st19" cx="-1970.166" cy="-216.666" r="34.741"/>
	<g class="st1">
		<path class="st20" d="M-2013.354-276.155l14.756,13.25c0.412,0.37,0.447,1.005,0.076,1.418l-2.601,2.897
			c-0.37,0.413-1.005,0.447-1.418,0.076l-14.756-13.25c-0.412-0.37-0.447-1.005-0.076-1.418l2.601-2.897
			C-2014.401-276.492-2013.767-276.526-2013.354-276.155z"/>
		<path class="st20" d="M-1926.977-276.826l-13.584,12.198c-0.412,0.37-0.447,1.005-0.076,1.418l2.601,2.897
			c0.37,0.413,1.005,0.447,1.418,0.076l13.584-12.198c0.412-0.37,0.447-1.005,0.076-1.418l-2.601-2.897
			C-1925.93-277.162-1926.565-277.196-1926.977-276.826z"/>
		<path class="st20" d="M-1967.201-295.937v29.481c0,0.554-0.449,1.004-1.004,1.004h-3.894c-0.554,0-1.004-0.449-1.004-1.004
			v-29.481c0-0.554,0.449-1.004,1.004-1.004h3.894C-1967.651-296.941-1967.201-296.491-1967.201-295.937z"/>
	</g>
	<rect x="-1127.723" y="102.912" class="st21" width="26.426" height="10.723"/>
</g>
<g id="genius" class="st0">
	<rect x="-2173.638" y="40.231" class="st22" width="402.894" height="410.553"/>
	<circle class="st23" cx="-1971.574" cy="217.38" r="120.383"/>
	<path class="st24" d="M-1966.68,348.657h-9.787c-3.314,0-6-2.686-6-6V268.87c0-3.314,2.686-6,6-6h9.787c3.314,0,6,2.686,6,6v73.787
		C-1960.68,345.971-1963.367,348.657-1966.68,348.657z"/>
	<path class="st24" d="M-1917.347,357.219v11.25c0,3.314-2.686,6-6,6h-96.701c-3.314,0-6-2.686-6-6v-11.25c0-3.314,2.686-6,6-6
		h96.701C-1920.034,351.219-1917.347,353.905-1917.347,357.219z"/>
	<path class="st24" d="M-1917.347,383.093v11.25c0,3.314-2.686,6-6,6h-96.701c-3.314,0-6-2.686-6-6v-11.25c0-3.314,2.686-6,6-6
		h96.701C-1920.034,377.093-1917.347,379.779-1917.347,383.093z"/>
	<circle class="st25" cx="-1971.698" cy="214.568" r="34.741"/>
	<g class="st1">
		<path class="st26" d="M-2014.886,155.079l14.756,13.25c0.412,0.37,0.447,1.005,0.076,1.418l-2.601,2.897
			c-0.37,0.413-1.005,0.447-1.418,0.076l-14.756-13.25c-0.413-0.37-0.447-1.005-0.076-1.418l2.601-2.897
			C-2015.933,154.743-2015.299,154.708-2014.886,155.079z"/>
		<path class="st26" d="M-1928.509,154.408l-13.584,12.198c-0.412,0.37-0.447,1.005-0.076,1.418l2.601,2.897
			c0.37,0.413,1.005,0.447,1.418,0.076l13.584-12.198c0.412-0.37,0.447-1.005,0.076-1.418l-2.601-2.897
			C-1927.462,154.072-1928.097,154.038-1928.509,154.408z"/>
		<path class="st26" d="M-1968.733,135.297v29.481c0,0.554-0.449,1.004-1.004,1.004h-3.894c-0.554,0-1.004-0.449-1.004-1.004
			v-29.481c0-0.554,0.449-1.004,1.004-1.004h3.894C-1969.182,134.293-1968.733,134.743-1968.733,135.297z"/>
	</g>
</g>
<g id="couleur">
	<rect x="-1022.638" y="-367.894" class="st27" width="399.794" height="170.086"/>
	<rect x="-898.379" y="-342.918" class="st4" width="42.754" height="38.298"/>
	<rect x="-827.693" y="-342.918" class="st14" width="42.754" height="38.298"/>
	<rect x="-757.006" y="-342.918" class="st15" width="42.754" height="38.298"/>
	<g>
		<path d="M-881.729-297.798c-0.241-0.012-0.549,0-0.884,0.048c-1.85,0.276-2.827,1.487-3.028,2.771h0.04
			c0.416-0.492,1.139-0.899,2.104-0.899c1.541,0,2.626,0.996,2.626,2.519c0,1.427-1.085,2.747-2.894,2.747
			c-1.862,0-3.082-1.295-3.082-3.322c0-1.535,0.616-2.746,1.474-3.514c0.724-0.636,1.688-1.032,2.787-1.151
			c0.349-0.048,0.643-0.06,0.857-0.06V-297.798z M-882.064-293.3c0-1.115-0.71-1.787-1.795-1.787c-0.71,0-1.367,0.396-1.688,0.959
			c-0.08,0.12-0.134,0.276-0.134,0.468c0.026,1.283,0.684,2.231,1.916,2.231C-882.747-291.429-882.064-292.185-882.064-293.3z"/>
		<path d="M-874.039-294.728c0,2.651-1.099,4.114-3.028,4.114c-1.701,0-2.854-1.427-2.88-4.006c0-2.614,1.259-4.054,3.027-4.054
			C-875.084-298.673-874.039-297.21-874.039-294.728z M-878.769-294.607c0,2.027,0.696,3.178,1.769,3.178
			c1.206,0,1.782-1.259,1.782-3.25c0-1.919-0.55-3.178-1.769-3.178C-878.019-297.858-878.769-296.73-878.769-294.607z"/>
		<path d="M-869.03-296.347c0,1.643-0.965,2.459-2.09,2.459c-1.085,0-2.023-0.78-2.036-2.351c0-1.559,0.951-2.435,2.103-2.435
			C-869.833-298.673-869.03-297.834-869.03-296.347z M-872.218-296.274c-0.027,0.995,0.389,1.751,1.125,1.751
			c0.777,0,1.126-0.744,1.126-1.775c0-0.948-0.309-1.739-1.126-1.739C-871.829-298.038-872.218-297.258-872.218-296.274z
			 M-871.2-290.614l5.117-8.06h0.75l-5.117,8.06H-871.2z M-863.363-293.12c0,1.643-0.965,2.458-2.076,2.458
			c-1.086,0-2.023-0.78-2.037-2.339c0-1.571,0.951-2.447,2.104-2.447C-864.153-295.447-863.363-294.607-863.363-293.12z
			 M-866.551-293.048c-0.014,0.996,0.415,1.751,1.139,1.751c0.777,0,1.125-0.744,1.125-1.775c0-0.948-0.308-1.739-1.125-1.739
			C-866.15-294.812-866.551-294.032-866.551-293.048z"/>
	</g>
	<g>
		<path d="M-817.98-291.825c0.335,0.192,1.112,0.492,1.93,0.492c1.514,0,1.982-0.863,1.97-1.511
			c-0.014-1.091-1.112-1.559-2.251-1.559h-0.656v-0.792h0.656c0.857,0,1.942-0.396,1.942-1.319c0-0.624-0.442-1.175-1.527-1.175
			c-0.696,0-1.366,0.276-1.741,0.516l-0.309-0.768c0.456-0.3,1.34-0.6,2.277-0.6c1.715,0,2.492,0.912,2.492,1.859
			c0,0.804-0.536,1.487-1.607,1.835v0.024c1.071,0.192,1.942,0.911,1.942,2.003c0,1.247-1.085,2.338-3.175,2.338
			c-0.979,0-1.836-0.276-2.265-0.528L-817.98-291.825z"/>
		<path d="M-805.601-294.596c0,2.651-1.099,4.114-3.028,4.114c-1.701,0-2.854-1.427-2.88-4.006c0-2.614,1.259-4.054,3.027-4.054
			C-806.646-298.542-805.601-297.078-805.601-294.596z M-810.33-294.476c0,2.027,0.697,3.178,1.769,3.178
			c1.206,0,1.782-1.259,1.782-3.25c0-1.919-0.55-3.178-1.769-3.178C-809.58-297.726-810.33-296.599-810.33-294.476z"/>
		<path d="M-800.591-296.215c0,1.643-0.965,2.459-2.09,2.459c-1.085,0-2.023-0.78-2.036-2.351c0-1.559,0.951-2.435,2.103-2.435
			C-801.395-298.542-800.591-297.702-800.591-296.215z M-803.78-296.143c-0.027,0.995,0.389,1.751,1.125,1.751
			c0.777,0,1.126-0.744,1.126-1.775c0-0.948-0.309-1.739-1.126-1.739C-803.391-297.906-803.78-297.126-803.78-296.143z
			 M-802.762-290.482l5.118-8.06h0.75l-5.117,8.06H-802.762z M-794.924-292.988c0,1.643-0.965,2.458-2.076,2.458
			c-1.086,0-2.023-0.78-2.037-2.339c0-1.571,0.951-2.447,2.104-2.447C-795.714-295.315-794.924-294.476-794.924-292.988z
			 M-798.113-292.917c-0.014,0.996,0.415,1.751,1.139,1.751c0.777,0,1.125-0.744,1.125-1.775c0-0.948-0.308-1.739-1.125-1.739
			C-797.711-294.68-798.113-293.9-798.113-292.917z"/>
	</g>
	<g>
		<path d="M-743.749-297.426h-0.027l-1.514,0.732l-0.228-0.804l1.902-0.912h1.005v7.796h-1.139V-297.426z"/>
		<path d="M-733.649-294.595c0,2.651-1.099,4.114-3.028,4.114c-1.701,0-2.854-1.427-2.88-4.006c0-2.614,1.259-4.054,3.027-4.054
			C-734.694-298.541-733.649-297.078-733.649-294.595z M-738.378-294.475c0,2.027,0.696,3.178,1.769,3.178
			c1.206,0,1.782-1.259,1.782-3.25c0-1.919-0.55-3.179-1.769-3.179C-737.628-297.726-738.378-296.598-738.378-294.475z"/>
		<path d="M-728.639-296.214c0,1.643-0.965,2.459-2.09,2.459c-1.085,0-2.023-0.78-2.036-2.351c0-1.559,0.951-2.435,2.103-2.435
			C-729.443-298.541-728.639-297.701-728.639-296.214z M-731.828-296.142c-0.027,0.995,0.389,1.751,1.125,1.751
			c0.777,0,1.126-0.744,1.126-1.775c0-0.948-0.309-1.739-1.126-1.739C-731.439-297.905-731.828-297.126-731.828-296.142z
			 M-730.809-290.481l5.117-8.06h0.75l-5.117,8.06H-730.809z M-722.972-292.988c0,1.643-0.965,2.458-2.076,2.458
			c-1.086,0-2.023-0.78-2.037-2.339c0-1.571,0.951-2.446,2.104-2.446C-723.762-295.314-722.972-294.475-722.972-292.988z
			 M-726.161-292.916c-0.014,0.996,0.415,1.751,1.139,1.751c0.777,0,1.125-0.744,1.125-1.775c0-0.948-0.308-1.739-1.125-1.739
			C-725.759-294.679-726.161-293.899-726.161-292.916z"/>
	</g>
	<rect x="-898.379" y="-276.025" class="st28" width="42.754" height="38.298"/>
	<linearGradient id="SVGID_1_" gradientUnits="userSpaceOnUse" x1="-806.3157" y1="-237.5992" x2="-806.3157" y2="-275.7978">
		<stop  offset="0" style="stop-color:#F6C240"/>
		<stop  offset="0.3337" style="stop-color:#AE9580"/>
		<stop  offset="0.6582" style="stop-color:#666F98"/>
		<stop  offset="0.887" style="stop-color:#305A9F"/>
		<stop  offset="1" style="stop-color:#1152A1"/>
	</linearGradient>
	<rect x="-827.693" y="-276.025" class="st29" width="42.754" height="38.298"/>
	<rect x="-757.006" y="-276.025" class="st4" width="42.754" height="38.298"/>
	<g>
		<path d="M-881.729-230.904c-0.241-0.012-0.549,0-0.884,0.048c-1.85,0.275-2.827,1.487-3.028,2.77h0.04
			c0.416-0.492,1.139-0.899,2.104-0.899c1.541,0,2.626,0.996,2.626,2.519c0,1.427-1.085,2.747-2.894,2.747
			c-1.862,0-3.082-1.295-3.082-3.322c0-1.535,0.616-2.746,1.474-3.514c0.724-0.636,1.688-1.032,2.787-1.151
			c0.349-0.048,0.643-0.06,0.857-0.06V-230.904z M-882.064-226.406c0-1.115-0.71-1.787-1.795-1.787c-0.71,0-1.367,0.396-1.688,0.959
			c-0.08,0.12-0.134,0.276-0.134,0.468c0.026,1.284,0.684,2.231,1.916,2.231C-882.747-224.535-882.064-225.291-882.064-226.406z"/>
		<path d="M-874.039-227.834c0,2.651-1.099,4.114-3.028,4.114c-1.701,0-2.854-1.427-2.88-4.006c0-2.614,1.259-4.054,3.027-4.054
			C-875.084-231.779-874.039-230.316-874.039-227.834z M-878.769-227.713c0,2.027,0.696,3.178,1.769,3.178
			c1.206,0,1.782-1.259,1.782-3.25c0-1.919-0.55-3.179-1.769-3.179C-878.019-230.964-878.769-229.836-878.769-227.713z"/>
		<path d="M-869.03-229.453c0,1.643-0.965,2.459-2.09,2.459c-1.085,0-2.023-0.78-2.036-2.351c0-1.559,0.951-2.435,2.103-2.435
			C-869.833-231.779-869.03-230.939-869.03-229.453z M-872.218-229.38c-0.027,0.995,0.389,1.751,1.125,1.751
			c0.777,0,1.126-0.744,1.126-1.775c0-0.948-0.309-1.739-1.126-1.739C-871.829-231.144-872.218-230.364-872.218-229.38z
			 M-871.2-223.72l5.117-8.06h0.75l-5.117,8.06H-871.2z M-863.363-226.226c0,1.643-0.965,2.458-2.076,2.458
			c-1.086,0-2.023-0.78-2.037-2.339c0-1.571,0.951-2.446,2.104-2.446C-864.153-228.553-863.363-227.713-863.363-226.226z
			 M-866.551-226.154c-0.014,0.996,0.415,1.751,1.139,1.751c0.777,0,1.125-0.744,1.125-1.775c0-0.948-0.308-1.739-1.125-1.739
			C-866.15-227.918-866.551-227.138-866.551-226.154z"/>
	</g>
	<g>
		<path d="M-817.98-224.931c0.335,0.192,1.112,0.492,1.93,0.492c1.514,0,1.982-0.863,1.97-1.511
			c-0.014-1.091-1.112-1.559-2.251-1.559h-0.656v-0.792h0.656c0.857,0,1.942-0.396,1.942-1.319c0-0.624-0.442-1.175-1.527-1.175
			c-0.696,0-1.366,0.276-1.741,0.516l-0.309-0.768c0.456-0.3,1.34-0.6,2.277-0.6c1.715,0,2.492,0.912,2.492,1.859
			c0,0.804-0.536,1.487-1.607,1.835v0.024c1.071,0.192,1.942,0.911,1.942,2.002c0,1.248-1.085,2.339-3.175,2.339
			c-0.979,0-1.836-0.276-2.265-0.528L-817.98-224.931z"/>
		<path d="M-805.601-227.702c0,2.651-1.099,4.114-3.028,4.114c-1.701,0-2.854-1.427-2.88-4.006c0-2.614,1.259-4.054,3.027-4.054
			C-806.646-231.647-805.601-230.184-805.601-227.702z M-810.33-227.582c0,2.027,0.697,3.178,1.769,3.178
			c1.206,0,1.782-1.259,1.782-3.25c0-1.919-0.55-3.179-1.769-3.179C-809.58-230.832-810.33-229.705-810.33-227.582z"/>
		<path d="M-800.591-229.321c0,1.643-0.965,2.459-2.09,2.459c-1.085,0-2.023-0.78-2.036-2.351c0-1.559,0.951-2.435,2.103-2.435
			C-801.395-231.647-800.591-230.808-800.591-229.321z M-803.78-229.249c-0.027,0.995,0.389,1.751,1.125,1.751
			c0.777,0,1.126-0.744,1.126-1.775c0-0.948-0.309-1.739-1.126-1.739C-803.391-231.012-803.78-230.232-803.78-229.249z
			 M-802.762-223.588l5.118-8.06h0.75l-5.117,8.06H-802.762z M-794.924-226.094c0,1.643-0.965,2.458-2.076,2.458
			c-1.086,0-2.023-0.78-2.037-2.339c0-1.571,0.951-2.446,2.104-2.446C-795.714-228.421-794.924-227.582-794.924-226.094z
			 M-798.113-226.022c-0.014,0.996,0.415,1.751,1.139,1.751c0.777,0,1.125-0.744,1.125-1.775c0-0.948-0.308-1.739-1.125-1.739
			C-797.711-227.786-798.113-227.006-798.113-226.022z"/>
	</g>
	<g>
		<path d="M-743.749-230.532h-0.027l-1.514,0.732l-0.228-0.804l1.902-0.912h1.005v7.796h-1.139V-230.532z"/>
		<path d="M-733.649-227.702c0,2.651-1.099,4.114-3.028,4.114c-1.701,0-2.854-1.427-2.88-4.006c0-2.614,1.259-4.054,3.027-4.054
			C-734.694-231.647-733.649-230.184-733.649-227.702z M-738.378-227.582c0,2.027,0.696,3.178,1.769,3.178
			c1.206,0,1.782-1.259,1.782-3.25c0-1.919-0.55-3.179-1.769-3.179C-737.628-230.832-738.378-229.705-738.378-227.582z"/>
		<path d="M-728.639-229.321c0,1.643-0.965,2.459-2.09,2.459c-1.085,0-2.023-0.78-2.036-2.351c0-1.559,0.951-2.435,2.103-2.435
			C-729.443-231.647-728.639-230.808-728.639-229.321z M-731.828-229.249c-0.027,0.995,0.389,1.751,1.125,1.751
			c0.777,0,1.126-0.744,1.126-1.775c0-0.948-0.309-1.739-1.126-1.739C-731.439-231.012-731.828-230.232-731.828-229.249z
			 M-730.809-223.588l5.117-8.06h0.75l-5.117,8.06H-730.809z M-722.972-226.094c0,1.643-0.965,2.458-2.076,2.458
			c-1.086,0-2.023-0.78-2.037-2.339c0-1.571,0.951-2.446,2.104-2.446C-723.762-228.421-722.972-227.582-722.972-226.094z
			 M-726.161-226.022c-0.014,0.996,0.415,1.751,1.139,1.751c0.777,0,1.125-0.744,1.125-1.775c0-0.948-0.308-1.739-1.125-1.739
			C-725.759-227.786-726.161-227.006-726.161-226.022z"/>
	</g>
	<g>
		<path d="M-962.4-326.065h1.554v9.62h5.146v1.168h-6.7V-326.065z"/>
		<path d="M-952.272-325.201c0.018,0.48-0.375,0.864-1.001,0.864c-0.554,0-0.947-0.384-0.947-0.864c0-0.497,0.411-0.88,0.983-0.88
			C-952.647-326.081-952.272-325.697-952.272-325.201z M-954.023-315.277v-7.747h1.572v7.747H-954.023z"/>
		<path d="M-942.393-323.024c-0.035,0.56-0.071,1.185-0.071,2.129v4.498c0,1.777-0.393,2.865-1.232,3.538
			c-0.84,0.704-2.055,0.928-3.145,0.928c-1.037,0-2.181-0.224-2.877-0.64l0.393-1.072c0.572,0.32,1.466,0.608,2.537,0.608
			c1.608,0,2.788-0.752,2.788-2.705v-0.864h-0.036c-0.482,0.72-1.411,1.296-2.752,1.296c-2.144,0-3.681-1.632-3.681-3.777
			c0-2.625,1.912-4.114,3.896-4.114c1.501,0,2.323,0.705,2.698,1.345h0.035l0.072-1.168H-942.393z M-944.019-319.967
			c0-0.24-0.018-0.448-0.089-0.64c-0.286-0.816-1.055-1.489-2.198-1.489c-1.5,0-2.572,1.137-2.572,2.929
			c0,1.521,0.857,2.785,2.555,2.785c0.965,0,1.841-0.544,2.18-1.44c0.09-0.24,0.125-0.512,0.125-0.752V-319.967z"/>
		<path d="M-939.859-326.642h1.572v4.834h0.035c0.251-0.4,0.644-0.752,1.126-0.992c0.465-0.24,1.019-0.4,1.608-0.4
			c1.161,0,3.02,0.641,3.02,3.313v4.61h-1.572v-4.45c0-1.249-0.519-2.305-2.001-2.305c-1.019,0-1.823,0.641-2.108,1.409
			c-0.09,0.192-0.107,0.4-0.107,0.672v4.674h-1.572V-326.642z"/>
		<path d="M-928.123-325.249v2.225h2.252v1.072h-2.252v4.178c0,0.96,0.304,1.505,1.18,1.505c0.411,0,0.715-0.048,0.911-0.096
			l0.071,1.056c-0.304,0.112-0.786,0.192-1.394,0.192c-0.732,0-1.322-0.208-1.697-0.592c-0.447-0.416-0.607-1.104-0.607-2.017
			v-4.226H-931v-1.072h1.341v-1.857L-928.123-325.249z"/>
	</g>
	<g>
		<path d="M-961.381-262.006c0.946-0.128,2.072-0.224,3.305-0.224c2.234,0,3.824,0.464,4.879,1.344
			c1.071,0.88,1.697,2.129,1.697,3.874c0,1.761-0.607,3.201-1.733,4.194c-1.126,1.008-2.984,1.553-5.325,1.553
			c-1.107,0-2.036-0.048-2.822-0.128V-262.006z M-959.828-252.466c0.394,0.064,0.965,0.08,1.573,0.08
			c3.323,0,5.128-1.665,5.128-4.578c0.018-2.545-1.591-4.162-4.878-4.162c-0.805,0-1.412,0.064-1.823,0.144V-252.466z"/>
		<path d="M-944.751-251.361l-0.125-0.977h-0.054c-0.482,0.608-1.411,1.153-2.645,1.153c-1.751,0-2.645-1.104-2.645-2.225
			c0-1.873,1.858-2.897,5.2-2.881v-0.16c0-0.641-0.196-1.793-1.966-1.793c-0.804,0-1.644,0.224-2.251,0.576l-0.357-0.928
			c0.715-0.416,1.751-0.688,2.841-0.688c2.645,0,3.288,1.617,3.288,3.169v2.897c0,0.672,0.035,1.329,0.143,1.857H-944.751z
			 M-944.984-255.315c-1.715-0.032-3.662,0.24-3.662,1.745c0,0.913,0.679,1.345,1.482,1.345c1.126,0,1.841-0.64,2.091-1.296
			c0.054-0.144,0.089-0.304,0.089-0.448V-255.315z"/>
		<path d="M-940.93-256.691c0-0.913-0.019-1.697-0.072-2.417h1.376l0.054,1.521h0.071c0.394-1.041,1.341-1.697,2.395-1.697
			c0.179,0,0.304,0.016,0.447,0.048v1.328c-0.161-0.032-0.322-0.048-0.536-0.048c-1.108,0-1.895,0.752-2.108,1.809
			c-0.036,0.192-0.071,0.417-0.071,0.656v4.13h-1.555V-256.691z"/>
		<path d="M-933.463-255.555h0.035c0.215-0.272,0.519-0.608,0.769-0.88l2.537-2.673h1.894l-3.341,3.185l3.806,4.562h-1.912
			l-2.983-3.713l-0.804,0.8v2.913h-1.555v-11.365h1.555V-255.555z"/>
	</g>
</g>
<g id="logo_tete" class="st0">
	
		<image style="overflow:visible;opacity:0.82;" width="400" height="459" xlink:href="6DB8890E.jpg"  transform="matrix(0.4972 0 0 0.4972 -760.0842 -255.0271)">
	</image>
	<line class="st30" x1="-663.68" y1="-106.918" x2="-663.68" y2="-79.003"/>
	<line class="st30" x1="-650.106" y1="-82.535" x2="-662.021" y2="-82.535"/>
	<g class="st1">
		<path class="st31" d="M-1591.212,322.546c1.226,2.686-0.131,5.855-2.905,6.877c-0.569,0.204-1.168,0.307-1.752,0.307
			c-1.956,0-3.796-1.124-4.643-2.993c-4.964-10.921-9.592-10.702-12.745-10.541c-5.11,0.248-9.213,6.599-11.476,11.402
			c-1.066,2.278-3.694,3.387-6.103,2.628l-0.029-0.015c-2.935-0.905-4.424-4.176-3.139-6.964
			c3.037-6.585,9.446-16.731,20.235-17.257C-1603.709,305.493-1596.628,310.647-1591.212,322.546z"/>
		<path class="st31" d="M-1571.222,313.346c-0.09-0.41-0.19-0.83-0.31-1.24v-0.03c-3.56-13.58-13.88-24.44-27.14-28.76
			c-4.04-1.33-8.37-2.04-12.85-2.04c-16.12,0-30.07,9.21-36.88,22.67c0,0-0.01,0-0.01,0.01c-2.85,5.61-4.46,11.95-4.46,18.66
			c0,22.84,18.52,41.35,41.35,41.35c22.84,0,41.35-18.51,41.35-41.35C-1570.172,319.436-1570.542,316.326-1571.222,313.346z
			 M-1611.521,358.856c-19.99,0-36.24-16.27-36.24-36.24c0-9.08,3.36-17.39,8.91-23.75h0.02c8.62-4.29,19.03-8.76,29.85-12.38h0.02
			c18.79,1.3,33.66,17.01,33.66,36.13C-1575.302,342.586-1591.552,358.856-1611.521,358.856z"/>
		<path d="M-1566.001,313.436c-0.71-3.59-1.85-7.04-3.35-10.28c-4.37-9.45-11.82-17.18-21.06-21.91h-0.01
			c-0.66-0.34-1.33-0.66-2-0.97c-0.25-0.11-0.51-0.23-0.76-0.33c-0.63-0.28-1.26-0.54-1.9-0.78c-0.38-0.14-0.76-0.28-1.14-0.41
			c-0.39-0.14-0.79-0.27-1.18-0.39c-0.39-0.13-0.8-0.25-1.2-0.37c-0.8-0.24-1.62-0.45-2.45-0.64c-0.26-0.07-0.54-0.13-0.82-0.17
			c-0.04-0.02-0.09-0.02-0.13-0.03c-0.44-0.1-0.88-0.19-1.31-0.27c-0.38-0.07-0.76-0.13-1.14-0.18c-0.66-0.11-1.33-0.19-2-0.27
			c-0.16-0.01-0.33-0.03-0.49-0.05c-0.05-0.01-0.1-0.01-0.15-0.02c-0.22-0.02-0.44-0.03-0.65-0.06c-0.9-0.06-1.81-0.12-2.73-0.13
			c-12.77,4.17-24.93,9.47-34.66,14.41c-0.01,0.01-0.01,0.01-0.01,0.01c-0.46,0.48-0.9,0.97-1.34,1.47
			c-4.16,4.74-7.37,10.34-9.32,16.48c-0.03,0.08-0.05,0.17-0.07,0.25c-1.38,4.37-2.11,9.01-2.11,13.82
			c0,25.61,20.84,46.46,46.46,46.46c25.61,0,46.44-20.85,46.44-46.46C-1565.082,319.476-1565.381,316.396-1566.001,313.436z
			 M-1611.521,358.856c-19.99,0-36.24-16.27-36.24-36.24c0-9.08,3.36-17.39,8.91-23.75h0.02c6.62-7.65,16.41-12.49,27.31-12.49
			c0.85,0,1.71,0.03,2.54,0.11h0.02c18.79,1.3,33.66,17.01,33.66,36.13C-1575.302,342.586-1591.552,358.856-1611.521,358.856z"/>
		<path class="st32" d="M-1608.962,286.486h-0.02c-10.82,3.62-21.23,8.09-29.85,12.38h-0.02c-5.55,6.36-8.91,14.67-8.91,23.75
			c0,19.97,16.25,36.24,36.24,36.24c19.97,0,36.22-16.27,36.22-36.24C-1575.302,303.496-1590.172,287.786-1608.962,286.486z
			 M-1594.121,329.426c-0.56,0.2-1.16,0.3-1.75,0.3c-1.95,0-3.79-1.12-4.64-2.99c-4.96-10.92-9.59-10.7-12.75-10.54
			c-5.11,0.25-9.21,6.6-11.47,11.4c-1.07,2.28-3.7,3.39-6.1,2.63l-0.03-0.02c-2.94-0.9-4.43-4.17-3.14-6.96
			c3.03-6.58,9.44-16.73,20.23-17.26c10.06-0.49,17.14,4.66,22.56,16.56C-1589.982,325.236-1591.342,328.396-1594.121,329.426z"/>
	</g>
	<g class="st1">
		<path class="st31" d="M-1483.758,322.823c1.226,2.686-0.132,5.855-2.92,6.876c-0.569,0.219-1.168,0.307-1.752,0.307
			c-1.942,0-3.796-1.124-4.643-2.993c-4.949-10.921-9.577-10.702-12.746-10.541c-5.095,0.248-9.212,6.599-11.461,11.402
			c-1.08,2.278-3.708,3.387-6.103,2.628h-0.044c-2.92-0.92-4.424-4.19-3.139-6.979c3.037-6.585,9.461-16.731,20.25-17.257
			C-1496.255,305.77-1489.189,310.924-1483.758,322.823z"/>
		<path class="st31" d="M-1465.192,309.546h-0.01c-1.63-4.61-4.06-8.86-7.16-12.57v-0.01c-0.25-0.31-0.5-0.61-0.77-0.91
			c-5.33-2.13-10.29-4.57-15.59-7.13c-4.54-2.21-9.23-4.56-14.67-6.9h-0.13c-0.22-0.01-0.43-0.01-0.65-0.01
			c-0.65,0-1.3,0.02-1.94,0.05h-0.01c-5.61,0.25-10.9,1.63-15.71,3.91h-0.02c-8.64,4.1-15.63,11.11-19.72,19.75v0.01
			c-1.21,2.56-2.16,5.26-2.82,8.06c-0.74,3.07-1.12,6.28-1.12,9.57c0,22.83,18.51,41.34,41.34,41.34
			c22.84,0,41.35-18.51,41.35-41.34C-1462.822,318.516-1463.651,313.876-1465.192,309.546z M-1504.172,359.596
			c-19.98,0-36.23-16.26-36.23-36.23c0-16.43,10.96-30.33,25.97-34.75c5.04,1.93,9.54,3.92,13.78,5.92c1.7,0.79,3.36,1.59,5,2.39
			c0.82,0.4,1.64,0.79,2.45,1.19c0.88,0.42,1.75,0.85,2.61,1.27c3.26,1.57,6.51,3.12,9.88,4.58c1.12,0.48,2.26,0.96,3.42,1.43
			c0.92,0.37,1.86,0.74,2.81,1.1c0.96,0.36,1.92,0.71,2.91,1.05v0.01c2.34,4.77,3.64,10.13,3.64,15.81
			C-1467.932,343.336-1484.192,359.596-1504.172,359.596z"/>
		<path d="M-1459.342,311.156c-0.01-0.04-0.02-0.09-0.03-0.13c-1.1-4.02-2.74-7.81-4.83-11.31v-0.01c-0.12-0.21-0.24-0.41-0.37-0.62
			c-3.01-0.92-5.83-1.93-8.56-3.03c-5.33-2.13-10.29-4.57-15.59-7.13c-4.54-2.21-9.23-4.56-14.67-6.9h-0.13
			c-3.22-1.37-6.63-2.76-10.34-4.1h-0.02c-0.26,0.06-0.52,0.12-0.77,0.18c-0.41,0.08-0.8,0.19-1.2,0.29
			c-0.05,0.01-0.08,0.02-0.13,0.04c0-0.01-0.01,0-0.01,0c-1.25,0.32-2.49,0.71-3.7,1.14c-0.51,0.18-1,0.37-1.5,0.56
			c-0.83,0.33-1.66,0.68-2.48,1.06c-0.05,0.02-0.09,0.05-0.13,0.06c-0.47,0.22-0.92,0.45-1.38,0.69c-0.58,0.29-1.16,0.61-1.75,0.93
			c-0.57,0.32-1.14,0.66-1.69,1.01h-0.02c-7.57,4.71-13.7,11.55-17.53,19.66c-1.53,3.2-2.69,6.6-3.43,10.17
			c-0.67,3.11-1.02,6.33-1.02,9.65c0,25.6,20.83,46.45,46.45,46.45c25.61,0,46.46-20.85,46.46-46.45
			C-1457.712,319.146-1458.281,315.046-1459.342,311.156z M-1504.172,359.596c-19.98,0-36.23-16.26-36.23-36.23
			c0-16.43,10.96-30.33,25.97-34.75c3.26-0.98,6.7-1.49,10.26-1.49c14.31,0,26.72,8.34,32.6,20.42v0.01
			c2.34,4.77,3.64,10.13,3.64,15.81C-1467.932,343.336-1484.192,359.596-1504.172,359.596z"/>
		<path class="st32" d="M-1471.572,307.556c-0.99-0.34-1.95-0.7-2.91-1.06c-0.95-0.36-1.89-0.72-2.81-1.1
			c-1.16-0.47-2.3-0.95-3.42-1.43c-3.37-1.45-6.62-3-9.88-4.58c-0.86-0.42-1.73-0.85-2.61-1.27c-0.81-0.4-1.63-0.79-2.45-1.19
			c-1.64-0.79-3.3-1.59-5-2.39c-4.24-2-8.74-3.99-13.78-5.92c-15.01,4.42-25.97,18.32-25.97,34.75c0,19.97,16.25,36.23,36.23,36.23
			s36.24-16.26,36.24-36.23C-1467.932,317.686-1469.232,312.326-1471.572,307.556z M-1486.682,329.696
			c-0.57,0.22-1.16,0.31-1.75,0.31c-1.94,0-3.79-1.12-4.64-2.99c-4.95-10.92-9.58-10.7-12.75-10.54c-5.09,0.24-9.21,6.59-11.46,11.4
			c-1.08,2.28-3.71,3.39-6.1,2.63h-0.04c-2.92-0.92-4.43-4.19-3.14-6.98c3.03-6.59,9.46-16.73,20.25-17.26
			c10.06-0.5,17.12,4.66,22.55,16.56C-1482.531,325.506-1483.891,328.676-1486.682,329.696z"/>
	</g>
	<g class="st1">
		<path d="M-1548.318,125.759c-0.423,0-0.847-0.014-1.3-0.014c-4.453-0.028-9.928,0.183-16.235,0.945
			c-0.438,0.042-0.861,0.099-1.314,0.155c2.569-2.286,6.161-3.696,10.132-3.696
			C-1553.749,123.149-1550.727,124.123-1548.318,125.759z"/>
		<path d="M-1557.031,122.446c-4.5,0-8.62,1.75-11.35,4.57c0.4-0.06,0.81-0.11,1.2-0.17h0.02c0.45-0.06,0.87-0.11,1.31-0.16
			c2.38-1.79,5.49-2.83,8.82-2.83c2.71,0,5.27,0.68,7.41,1.89c0.46,0,0.88,0.01,1.3,0.01h0.02c0.42,0.02,0.85,0.03,1.25,0.03
			C-1549.722,123.676-1553.241,122.446-1557.031,122.446z"/>
	</g>
	<g class="st1">
		<path d="M-1522.241,275.126c-12.88-4-24.57-6.12-36.81-6.7c-7.92-0.37-14.25,0.01-17.31,0.26c-11.01,0.95-22.81,3.78-34.11,7.49
			c0.92,0.01,1.83,0.07,2.73,0.13c0.21,0.03,0.43,0.04,0.65,0.06c0.05,0.01,0.1,0.01,0.15,0.02c0.16,0.02,0.33,0.04,0.49,0.05
			c0.67,0.08,1.34,0.16,2,0.27c0.38,0.05,0.76,0.11,1.14,0.18c0.43,0.08,0.87,0.17,1.31,0.27c0.04,0.01,0.09,0.01,0.13,0.03
			c0.28,0.04,0.56,0.1,0.82,0.17c0.83,0.19,1.65,0.4,2.45,0.64c0.4,0.12,0.81,0.24,1.2,0.37c0.39,0.12,0.79,0.25,1.18,0.39
			c0.38,0.13,0.76,0.27,1.14,0.41c0.64,0.24,1.27,0.5,1.9,0.78c0.25,0.1,0.51,0.22,0.76,0.33c0.67,0.31,1.34,0.63,2,0.97h0.01
			c5.1-1.13,10.12-1.95,14.91-2.37c2.26-0.19,8.35-0.6,15.99-0.23c10.26,0.48,20.14,2.14,30.87,5.24h0.02
			c0.55-0.35,1.12-0.69,1.69-1.01c0.59-0.32,1.17-0.64,1.75-0.93c0.46-0.24,0.91-0.47,1.38-0.69c0.04-0.01,0.08-0.04,0.13-0.06
			c0.82-0.38,1.65-0.73,2.48-1.06c0.5-0.19,0.99-0.38,1.5-0.56c1.21-0.43,2.45-0.82,3.7-1.14c0,0,0.01-0.01,0.01,0
			c0.05-0.02,0.08-0.03,0.13-0.04c0.4-0.1,0.79-0.21,1.2-0.29c0.25-0.06,0.51-0.12,0.77-0.18
			C-1516.521,276.966-1519.292,276.026-1522.241,275.126z M-1522.241,275.126c-12.88-4-24.57-6.12-36.81-6.7
			c-7.92-0.37-14.25,0.01-17.31,0.26c-11.01,0.95-22.81,3.78-34.11,7.49c0.92,0.01,1.83,0.07,2.73,0.13
			c0.21,0.03,0.43,0.04,0.65,0.06c0.05,0.01,0.1,0.01,0.15,0.02c0.16,0.02,0.33,0.04,0.49,0.05c0.67,0.08,1.34,0.16,2,0.27
			c0.38,0.05,0.76,0.11,1.14,0.18c0.43,0.08,0.87,0.17,1.31,0.27c0.04,0.01,0.09,0.01,0.13,0.03c0.28,0.04,0.56,0.1,0.82,0.17
			c0.83,0.19,1.65,0.4,2.45,0.64c0.4,0.12,0.81,0.24,1.2,0.37c0.39,0.12,0.79,0.25,1.18,0.39c0.38,0.13,0.76,0.27,1.14,0.41
			c0.64,0.24,1.27,0.5,1.9,0.78c0.25,0.1,0.51,0.22,0.76,0.33c0.67,0.31,1.34,0.63,2,0.97h0.01c5.1-1.13,10.12-1.95,14.91-2.37
			c2.26-0.19,8.35-0.6,15.99-0.23c10.26,0.48,20.14,2.14,30.87,5.24h0.02c0.55-0.35,1.12-0.69,1.69-1.01
			c0.59-0.32,1.17-0.64,1.75-0.93c0.46-0.24,0.91-0.47,1.38-0.69c0.04-0.01,0.08-0.04,0.13-0.06c0.82-0.38,1.65-0.73,2.48-1.06
			c0.5-0.19,0.99-0.38,1.5-0.56c1.21-0.43,2.45-0.82,3.7-1.14c0,0,0.01-0.01,0.01,0c0.05-0.02,0.08-0.03,0.13-0.04
			c0.4-0.1,0.79-0.21,1.2-0.29c0.25-0.06,0.51-0.12,0.77-0.18C-1516.521,276.966-1519.292,276.026-1522.241,275.126z
			 M-1441.432,262.456c0.15,0.13,0.29,0.26,0.45,0.39v-0.01C-1441.121,262.716-1441.281,262.576-1441.432,262.456z
			 M-1522.241,275.126c-12.88-4-24.57-6.12-36.81-6.7c-7.92-0.37-14.25,0.01-17.31,0.26c-11.01,0.95-22.81,3.78-34.11,7.49
			c0.92,0.01,1.83,0.07,2.73,0.13c0.21,0.03,0.43,0.04,0.65,0.06c0.05,0.01,0.1,0.01,0.15,0.02c0.16,0.02,0.33,0.04,0.49,0.05
			c0.67,0.08,1.34,0.16,2,0.27c0.38,0.05,0.76,0.11,1.14,0.18c0.43,0.08,0.87,0.17,1.31,0.27c0.04,0.01,0.09,0.01,0.13,0.03
			c0.28,0.04,0.56,0.1,0.82,0.17c0.83,0.19,1.65,0.4,2.45,0.64c0.4,0.12,0.81,0.24,1.2,0.37c0.39,0.12,0.79,0.25,1.18,0.39
			c0.38,0.13,0.76,0.27,1.14,0.41c0.64,0.24,1.27,0.5,1.9,0.78c0.25,0.1,0.51,0.22,0.76,0.33c0.67,0.31,1.34,0.63,2,0.97h0.01
			c5.1-1.13,10.12-1.95,14.91-2.37c2.26-0.19,8.35-0.6,15.99-0.23c10.26,0.48,20.14,2.14,30.87,5.24h0.02
			c0.55-0.35,1.12-0.69,1.69-1.01c0.59-0.32,1.17-0.64,1.75-0.93c0.46-0.24,0.91-0.47,1.38-0.69c0.04-0.01,0.08-0.04,0.13-0.06
			c0.82-0.38,1.65-0.73,2.48-1.06c0.5-0.19,0.99-0.38,1.5-0.56c1.21-0.43,2.45-0.82,3.7-1.14c0,0,0.01-0.01,0.01,0
			c0.05-0.02,0.08-0.03,0.13-0.04c0.4-0.1,0.79-0.21,1.2-0.29c0.25-0.06,0.51-0.12,0.77-0.18
			C-1516.521,276.966-1519.292,276.026-1522.241,275.126z M-1522.241,275.126c-12.88-4-24.57-6.12-36.81-6.7
			c-7.92-0.37-14.25,0.01-17.31,0.26c-11.01,0.95-22.81,3.78-34.11,7.49c0.92,0.01,1.83,0.07,2.73,0.13
			c0.21,0.03,0.43,0.04,0.65,0.06c0.05,0.01,0.1,0.01,0.15,0.02c0.16,0.02,0.33,0.04,0.49,0.05c0.67,0.08,1.34,0.16,2,0.27
			c0.38,0.05,0.76,0.11,1.14,0.18c0.43,0.08,0.87,0.17,1.31,0.27c0.04,0.01,0.09,0.01,0.13,0.03c0.28,0.04,0.56,0.1,0.82,0.17
			c0.83,0.19,1.65,0.4,2.45,0.64c0.4,0.12,0.81,0.24,1.2,0.37c0.39,0.12,0.79,0.25,1.18,0.39c0.38,0.13,0.76,0.27,1.14,0.41
			c0.64,0.24,1.27,0.5,1.9,0.78c0.25,0.1,0.51,0.22,0.76,0.33c0.67,0.31,1.34,0.63,2,0.97h0.01c5.1-1.13,10.12-1.95,14.91-2.37
			c2.26-0.19,8.35-0.6,15.99-0.23c10.26,0.48,20.14,2.14,30.87,5.24h0.02c0.55-0.35,1.12-0.69,1.69-1.01
			c0.59-0.32,1.17-0.64,1.75-0.93c0.46-0.24,0.91-0.47,1.38-0.69c0.04-0.01,0.08-0.04,0.13-0.06c0.82-0.38,1.65-0.73,2.48-1.06
			c0.5-0.19,0.99-0.38,1.5-0.56c1.21-0.43,2.45-0.82,3.7-1.14c0,0,0.01-0.01,0.01,0c0.05-0.02,0.08-0.03,0.13-0.04
			c0.4-0.1,0.79-0.21,1.2-0.29c0.25-0.06,0.51-0.12,0.77-0.18C-1516.521,276.966-1519.292,276.026-1522.241,275.126z
			 M-1464.202,299.716v-0.01c-0.12-0.21-0.24-0.41-0.37-0.62c-3.01-0.92-5.83-1.93-8.56-3.03c-5.33-2.13-10.29-4.57-15.59-7.13
			c-4.54-2.21-9.23-4.56-14.67-6.9h-0.13c-3.22-1.37-6.63-2.76-10.34-4.1h-0.02c-2.64-0.96-5.41-1.9-8.36-2.8
			c-12.88-4-24.57-6.12-36.81-6.7c-7.92-0.37-14.25,0.01-17.31,0.26c-11.01,0.95-22.81,3.78-34.11,7.49
			c-12.77,4.17-24.93,9.47-34.66,14.41c-0.01,0.01-0.01,0.01-0.01,0.01c-0.46,0.48-0.9,0.97-1.34,1.47
			c-4.16,4.74-7.37,10.34-9.32,16.48c0.03-0.02,0.06-0.04,0.09-0.06c1.98-1.38,4.43-2.91,7.3-4.53c0-0.01,0.01-0.01,0.01-0.01
			c2.83-1.64,6.03-3.35,9.55-5.08h0.02c8.62-4.29,19.03-8.76,29.85-12.38h0.02c3.41-1.16,6.84-2.22,10.29-3.17
			c2.76-0.78,5.5-1.46,8.25-2.07h0.01c5.1-1.13,10.12-1.95,14.91-2.37c2.26-0.19,8.35-0.6,15.99-0.23
			c10.26,0.48,20.14,2.14,30.87,5.24h0.02c1.11,0.3,2.23,0.64,3.37,0.99c1.17,0.37,2.29,0.73,3.4,1.1h0.02
			c2.61,0.86,5.06,1.75,7.4,2.64c5.04,1.93,9.54,3.92,13.78,5.92c1.7,0.79,3.36,1.59,5,2.39c0.82,0.4,1.64,0.79,2.45,1.19
			c0.88,0.42,1.75,0.85,2.61,1.27c3.26,1.57,6.51,3.12,9.88,4.58c1.12,0.48,2.26,0.96,3.42,1.43c0.92,0.37,1.86,0.74,2.81,1.1
			c0.96,0.36,1.92,0.71,2.91,1.05c2.05,0.71,4.15,1.38,6.37,2h0.01c1.86,0.53,3.77,1.02,5.78,1.47c0.01,0,0.03,0.01,0.04,0.01
			C-1460.472,307.006-1462.111,303.216-1464.202,299.716z"/>
	</g>
	<g class="st1">
		<path d="M-1430.901,278.916v-4.48c0-0.03,0-1.23,0.02-3.5c0.03-2.26,0.09-5.57,0.22-9.81c0.76-26.63,0.46-58.96-4.93-67.84
			c-1.32-3.43-7.93-17.72-32.89-38.35c-27.77-22.93-67.22-28.13-70-28.49c-0.49-0.07-2.22-0.31-5.05-0.49
			c-1.06-0.07-2.23-0.13-3.52-0.17c-0.4,0-0.83-0.01-1.25-0.03h-0.02c-0.42,0-0.84-0.01-1.3-0.01c-4.45-0.03-9.92,0.18-16.23,0.94
			c-0.44,0.05-0.86,0.1-1.31,0.16h-0.02c-0.39,0.06-0.8,0.11-1.2,0.17c-1.05,0.14-2.11,0.29-3.21,0.46
			c-0.58,0.09-1.17,0.19-1.76,0.29l-0.76,0.14c-34.31,6.05-54.56,17.51-56.78,18.79c-2.72,1.38-30.66,16.1-43.31,41.04
			c-13,25.62-4.58,75.55-4.21,77.67l0.59,3.44c-2.46,5.84-8.01,20.37-7.34,31.29c0.23,3.78,1.21,7.14,3.34,9.54
			c0.22,0.27,0.46,0.51,0.72,0.75c2.67,2.47,5.77,3.41,6.34,3.57c1.41,0.39,2.81,0.56,4.17,0.56c6.44,0,11.93-3.82,13.97-5.25
			l0.19-0.12c0.19-0.12,0.37-0.26,0.56-0.39c0.02-0.02,0.05-0.03,0.07-0.05c0.03-0.09,0.06-0.17,0.09-0.26
			c2.17-6.46,5.82-12.27,10.57-17.08c-0.45,0.22-0.9,0.44-1.34,0.66c-2.56,1.29-4.94,2.54-7.1,3.73c-0.36,0.2-0.72,0.4-1.07,0.6
			c-2.15,1.21-4.07,2.35-5.7,3.4c-0.46,0.3-0.9,0.59-1.32,0.87c-0.25,0.17-0.49,0.33-0.73,0.5l-0.19,0.13
			c-1.47,1.03-5.97,4.16-9.27,3.23c-0.35-0.11-1.42-0.54-2.17-1.24c-3.16-2.92,1.27-22.26,6.55-32.73c0.29-0.59,0.63-1.2,1.01-1.81
			c6.76-2.54,13.82-5.18,21.23-7.74c1.05-0.37,2.11-0.74,3.18-1.1c1.11-0.39,2.22-0.77,3.34-1.13c1.13-0.38,2.25-0.75,3.39-1.12
			c1.02-0.34,2.04-0.66,3.08-0.99c2.98-0.94,6.01-1.86,9.1-2.75c1.16-0.33,2.33-0.67,3.51-0.98c1.17-0.34,2.35-0.65,3.55-0.96
			c2.26-0.61,4.57-1.19,6.89-1.74c0.81-0.2,1.61-0.39,2.43-0.56c3.85-0.91,7.78-1.72,11.78-2.44c1.21-0.23,2.42-0.44,3.65-0.64
			c1.22-0.22,2.45-0.42,3.69-0.59c1.08-0.18,2.18-0.34,3.27-0.48c2.05-0.3,4.1-0.55,6.19-0.78c1.26-0.15,2.53-0.28,3.8-0.39
			c0.96-0.1,1.93-0.19,2.9-0.26c0.06-0.01,0.12-0.01,0.18-0.01c0.67-0.06,1.36-0.11,2.04-0.15c1-0.09,1.99-0.15,3-0.2
			c1.32-0.09,2.67-0.14,4.01-0.2c0.09,0,0.18-0.01,0.26,0c1.11-0.06,2.22-0.08,3.33-0.11c31.61-0.72,66.71,5.46,105.31,24.59
			c1.43,0.72,3.68,2.35,5.81,4.15c0.54,0.45,1.08,0.91,1.59,1.36c0.25,0.24,0.5,0.47,0.75,0.7c0.25,0.22,0.48,0.43,0.7,0.67
			c0.23,0.21,0.47,0.44,0.66,0.65c0.46,0.47,0.87,0.92,1.21,1.33c6.16,14.28,6.22,23.31,3.62,25.66v0.02
			c-1.54,1.38-5.24,1.15-10.37,0.38c-2.76-0.41-5.35-0.9-7.81-1.44c-0.49-0.1-0.97-0.21-1.45-0.33c-0.73-0.17-1.44-0.34-2.14-0.52
			c-0.55-0.14-1.09-0.28-1.63-0.43c-0.6-0.16-1.2-0.33-1.78-0.5c-0.13-0.04-0.25-0.07-0.37-0.11c2.24,3.51,3.99,7.34,5.16,11.41
			c0.02,0.04,0.03,0.09,0.04,0.13c0.01,0,0.02,0,0.03,0.01c2.63,0.58,5.42,1.09,8.37,1.54c6.82,1.03,13.9,1.64,18.96-2.96
			c0.14-0.13,0.29-0.27,0.4-0.41c2.46-2.43,3.71-5.6,4.17-9.14C-1426.552,293.526-1428.531,285.566-1430.901,278.916z
			 M-1440.881,260.846c-0.04,1.34-0.07,2.57-0.1,3.73v0.01c-0.31-0.25-0.6-0.49-0.9-0.75c-0.31-0.24-0.62-0.49-0.92-0.72
			c-0.27-0.21-0.53-0.41-0.81-0.6c-0.26-0.2-0.52-0.4-0.79-0.58c-0.26-0.2-0.51-0.38-0.77-0.55c-0.16-0.11-0.32-0.21-0.47-0.32
			c-0.46-0.31-0.9-0.6-1.32-0.87c-0.62-0.36-1.2-0.69-1.73-0.96c-0.71-0.35-1.41-0.7-2.13-1.04c-0.64-0.31-1.3-0.62-1.94-0.93
			c-4.88-2.33-9.75-4.49-14.63-6.46c-0.82-0.33-1.62-0.67-2.44-0.98c-0.77-0.31-1.55-0.6-2.3-0.9c-2.49-0.94-4.97-1.86-7.45-2.72
			c-0.82-0.29-1.62-0.57-2.44-0.84c-4.77-1.6-9.55-3.04-14.34-4.31c-0.62-0.16-1.24-0.33-1.86-0.48c-0.84-0.23-1.67-0.44-2.5-0.64
			c-1.08-0.26-2.18-0.52-3.26-0.77c-1.79-0.43-3.6-0.81-5.41-1.17c-1.24-0.26-2.5-0.51-3.74-0.74c-3.2-0.6-6.41-1.13-9.62-1.56
			c-1.27-0.19-2.53-0.36-3.8-0.51c-1.25-0.16-2.52-0.31-3.79-0.44c-1.27-0.13-2.54-0.25-3.81-0.37c-1.54-0.14-3.06-0.25-4.6-0.35
			c-0.73-0.06-1.46-0.1-2.19-0.13c-4.09-0.24-8.21-0.35-12.34-0.35c-1.64,0-3.29,0.02-4.92,0.06c-0.01,0-0.01,0-0.03,0
			c-1.63,0.04-3.27,0.08-4.91,0.17c-0.82,0.04-1.64,0.07-2.47,0.12c-0.82,0.04-1.65,0.08-2.47,0.14c-0.82,0.05-1.65,0.11-2.48,0.17
			c-0.82,0.06-1.66,0.13-2.49,0.2c-1.09,0.1-2.19,0.2-3.28,0.31c-1.09,0.11-2.18,0.22-3.26,0.35c-1.08,0.13-2.16,0.26-3.24,0.4
			c-6.66,0.86-13.18,1.98-19.59,3.29c-0.78,0.17-1.57,0.32-2.34,0.49c-0.92,0.2-1.84,0.4-2.76,0.61c-1.69,0.38-3.37,0.77-5.05,1.18
			c-0.92,0.22-1.82,0.44-2.73,0.68c-0.76,0.18-1.5,0.38-2.25,0.58c-0.84,0.21-1.71,0.44-2.55,0.66c-1.04,0.28-2.08,0.57-3.1,0.85
			c-1.5,0.42-3.01,0.84-4.5,1.28c-0.02,0-0.04,0.01-0.06,0.01c-0.01,0.01-0.03,0.02-0.05,0.03c-0.47,0.13-0.93,0.27-1.4,0.41
			c-0.46,0.13-0.92,0.27-1.38,0.41c-0.83,0.24-1.66,0.5-2.49,0.75c-0.76,0.24-1.52,0.47-2.28,0.71c-1.25,0.39-2.49,0.77-3.73,1.17
			c-1.23,0.4-2.47,0.8-3.7,1.22c-0.99,0.32-1.99,0.66-2.97,0.99c-0.98,0.33-1.96,0.67-2.94,1c-1.95,0.67-3.89,1.34-5.81,2.04
			c-1.79,0.62-3.57,1.26-5.35,1.91c-1.53,0.55-3.06,1.12-4.58,1.68c-1.54,0.55-3.07,1.13-4.59,1.7c-1.72-12.74-5.44-48.41,4-67.03
			c11.52-22.7,38.74-36.57,39.01-36.7l0.34-0.18c0.2-0.13,19.84-11.67,53.36-17.58l0.75-0.13c0.55-0.1,1.09-0.2,1.65-0.28
			c0.96-0.15,1.91-0.29,2.84-0.42c0.92-0.13,1.83-0.25,2.72-0.35c0.9-0.1,1.77-0.2,2.62-0.28c1.28-0.12,2.51-0.22,3.7-0.3
			c0.8-0.05,1.57-0.09,2.33-0.13c0.47-0.02,0.94-0.04,1.4-0.06c1.7-0.06,3.27-0.08,4.72-0.06c0.29,0,0.58,0,0.87,0.01
			c0.56,0.01,1.1,0.03,1.63,0.04c1.04,0.04,2.01,0.09,2.88,0.14c2.67,0.18,4.16,0.41,4.16,0.41l0.22,0.02
			c0.05,0.01,0.73,0.09,1.94,0.29c0.1,0.02,0.21,0.03,0.32,0.05c0.32,0.05,0.67,0.11,1.06,0.18c0.37,0.07,0.77,0.14,1.2,0.21
			c0.65,0.12,1.36,0.25,2.12,0.4c0.51,0.1,1.04,0.2,1.6,0.32c0.83,0.17,1.72,0.36,2.65,0.57c0.63,0.14,1.27,0.29,1.94,0.44
			c0.66,0.16,1.34,0.32,2.04,0.5c7.36,1.83,16.68,4.66,26.18,8.92c1.36,0.6,2.72,1.24,4.08,1.91c0.85,0.42,1.7,0.85,2.55,1.29
			c2.95,1.54,5.89,3.23,8.75,5.08c2.86,1.85,5.64,3.85,8.29,6.04c0.79,0.66,1.57,1.3,2.32,1.95c0.75,0.64,1.49,1.27,2.2,1.9
			c1.07,0.94,2.1,1.86,3.09,2.76c0.66,0.6,1.29,1.19,1.91,1.78c0.63,0.59,1.23,1.16,1.81,1.73c0.29,0.29,0.58,0.57,0.87,0.85
			c14.74,14.55,17.75,23.33,17.77,23.39l0.44,1.48l0.57,0.45C-1443.261,200.756-1439.491,212.486-1440.881,260.846z"/>
		<path class="st33" d="M-1439.024,302.538v0.014c-1.533,1.383-5.241,1.157-10.366,0.381c-5.68-0.847-10.643-1.989-15.184-3.33
			c-3.007-0.889-5.825-1.862-8.555-2.92c-5.329-2.06-10.293-4.416-15.593-6.899c-4.541-2.13-9.227-4.402-14.673-6.659h-0.132
			c-3.212-1.326-6.628-2.667-10.337-3.965h-0.015c-2.642-0.931-5.417-1.834-8.366-2.709c-12.877-3.866-24.571-5.911-36.806-6.476
			c-7.928-0.353-14.249,0.014-17.315,0.254c-11.008,0.917-22.805,3.654-34.105,7.238c-12.775,4.035-24.937,9.156-34.66,13.925
			c-0.015,0.014-0.015,0.014-0.015,0.014c-7.446,3.668-13.475,7.125-17.257,9.763l-0.19,0.127c-1.474,1.03-5.971,4.162-9.271,3.231
			c-0.35-0.113-1.416-0.536-2.175-1.241c-3.153-2.92,1.27-22.263,6.555-32.732c0.292-0.593,0.628-1.199,1.007-1.806
			c6.76-2.539,13.826-5.178,21.228-7.746c1.051-0.367,2.117-0.734,3.183-1.1c1.11-0.381,2.219-0.762,3.343-1.129
			c1.124-0.381,2.248-0.748,3.387-1.115c1.022-0.339,2.044-0.663,3.081-0.988c2.978-0.945,6.015-1.862,9.096-2.751
			c1.168-0.339,2.336-0.677,3.518-0.988c1.168-0.339,2.351-0.649,3.548-0.959c2.263-0.607,4.57-1.185,6.891-1.735
			c0.803-0.198,1.606-0.395,2.424-0.564c3.854-0.903,7.782-1.721,11.782-2.441c1.212-0.226,2.423-0.437,3.65-0.635
			c1.226-0.226,2.453-0.423,3.694-0.593c1.08-0.183,2.175-0.339,3.27-0.48c2.044-0.296,4.102-0.55,6.19-0.776
			c1.256-0.155,2.526-0.282,3.796-0.395c0.964-0.099,1.927-0.183,2.905-0.254c0.058-0.014,0.117-0.014,0.175-0.014
			c0.672-0.056,1.358-0.113,2.044-0.155c0.993-0.085,1.986-0.141,2.993-0.198c1.328-0.085,2.672-0.141,4.015-0.198
			c0.088,0,0.175-0.014,0.263,0c1.11-0.056,2.219-0.085,3.329-0.113c31.609-0.719,66.706,5.46,105.308,24.591
			c1.431,0.719,3.679,2.356,5.811,4.148c0.54,0.451,1.08,0.917,1.591,1.369c0.248,0.24,0.497,0.466,0.745,0.691
			c0.248,0.226,0.482,0.437,0.701,0.677c0.234,0.212,0.467,0.437,0.657,0.649c0.467,0.466,0.876,0.917,1.212,1.326
			C-1436.484,291.153-1436.425,300.182-1439.024,302.538z"/>
		<path d="M-1444.131,198.726l-0.57-0.45l-0.44-1.48c-0.02-0.06-3.03-8.84-17.77-23.39c-0.29-0.28-0.58-0.56-0.87-0.85
			c-0.58-0.57-1.18-1.14-1.81-1.73c-0.62-0.58-1.25-1.18-1.91-1.78c-0.99-0.9-2.02-1.82-3.09-2.76c-0.71-0.62-1.45-1.26-2.2-1.9
			c-0.75-0.64-1.53-1.28-2.32-1.94c-2.65-2.18-5.43-4.2-8.29-6.05c-2.86-1.85-5.8-3.54-8.75-5.08c-0.85-0.44-1.7-0.87-2.55-1.29
			c-1.36-0.66-2.72-1.3-4.08-1.91c-9.5-4.26-18.82-7.09-26.18-8.92c-0.7-0.17-1.38-0.34-2.04-0.5c-0.67-0.15-1.31-0.3-1.94-0.44
			c-0.93-0.21-1.82-0.4-2.65-0.57c-0.56-0.11-1.09-0.22-1.6-0.32c-0.76-0.15-1.47-0.28-2.12-0.4c-0.43-0.07-0.83-0.14-1.2-0.21
			c-0.39-0.07-0.74-0.13-1.06-0.18c-0.11-0.02-0.22-0.03-0.32-0.05c-1.21-0.19-1.89-0.27-1.94-0.28l-0.22-0.03
			c0,0-1.49-0.23-4.16-0.41c-0.87-0.05-1.84-0.1-2.88-0.14c-0.53-0.01-1.07-0.03-1.63-0.04c-0.29-0.01-0.58-0.01-0.87-0.01
			c-1.45-0.01-3.03,0.01-4.72,0.06c-0.46,0.02-0.93,0.04-1.4,0.06c-0.76,0.04-1.53,0.08-2.33,0.13c-1.19,0.08-2.42,0.18-3.7,0.3
			c-0.85,0.08-1.72,0.18-2.62,0.28c-0.89,0.1-1.8,0.22-2.72,0.35c-0.93,0.13-1.88,0.27-2.84,0.42c-0.56,0.08-1.1,0.18-1.65,0.28
			l-0.75,0.13c-33.52,5.91-53.16,17.45-53.36,17.58l-0.34,0.18c-0.27,0.13-27.49,14-39.01,36.7c-9.44,18.62-5.72,54.29-4,67.03
			c1.52-0.57,3.05-1.15,4.59-1.7c1.52-0.56,3.05-1.13,4.58-1.68c1.78-0.65,3.56-1.29,5.35-1.91c1.92-0.7,3.86-1.37,5.81-2.04
			c0.98-0.33,1.96-0.67,2.94-1c0.98-0.33,1.98-0.66,2.97-0.98c1.23-0.42,2.47-0.83,3.7-1.23c1.24-0.4,2.48-0.78,3.73-1.17
			c0.76-0.24,1.52-0.47,2.28-0.71c0.83-0.25,1.66-0.51,2.49-0.75c0.46-0.14,0.92-0.28,1.38-0.41c0.47-0.14,0.93-0.27,1.4-0.4
			c0.02-0.02,0.04-0.03,0.05-0.04c0.02,0,0.04-0.01,0.06-0.01c1.49-0.44,3-0.86,4.5-1.28c1.02-0.28,2.06-0.57,3.1-0.85
			c0.84-0.22,1.71-0.45,2.55-0.66c0.75-0.2,1.49-0.4,2.25-0.58c0.91-0.24,1.81-0.46,2.73-0.68c1.68-0.41,3.36-0.8,5.05-1.18
			c0.92-0.21,1.84-0.41,2.76-0.61c0.77-0.17,1.56-0.32,2.34-0.49c6.41-1.31,12.93-2.43,19.59-3.29c1.08-0.14,2.16-0.27,3.24-0.39
			c1.08-0.13,2.17-0.25,3.26-0.36c1.09-0.11,2.19-0.21,3.28-0.31c0.83-0.07,1.67-0.14,2.49-0.2c0.83-0.06,1.66-0.11,2.48-0.16
			c0.82-0.06,1.65-0.11,2.47-0.15c0.83-0.05,1.65-0.08,2.47-0.12c1.64-0.09,3.28-0.13,4.91-0.17c0.02,0,0.02,0,0.03,0
			c1.63-0.04,3.28-0.06,4.92-0.06c4.13,0,8.25,0.11,12.34,0.35c0.73,0.03,1.46,0.07,2.19,0.13c1.54,0.1,3.06,0.21,4.6,0.35
			c1.27,0.12,2.54,0.24,3.81,0.37c1.27,0.13,2.54,0.28,3.79,0.44c1.27,0.15,2.53,0.32,3.8,0.51c3.21,0.43,6.42,0.96,9.62,1.56
			c1.24,0.23,2.5,0.48,3.74,0.74c1.81,0.36,3.62,0.74,5.41,1.17c1.08,0.25,2.18,0.51,3.26,0.77c0.83,0.2,1.66,0.41,2.5,0.64
			c0.62,0.15,1.24,0.32,1.86,0.48c4.79,1.27,9.57,2.71,14.34,4.31c0.82,0.27,1.62,0.55,2.44,0.84c2.48,0.86,4.96,1.78,7.45,2.72
			c0.75,0.3,1.53,0.59,2.3,0.9c0.82,0.31,1.62,0.65,2.44,0.98c4.88,1.97,9.75,4.13,14.63,6.46c0.64,0.31,1.3,0.62,1.94,0.93
			c0.72,0.34,1.42,0.69,2.13,1.04c0.53,0.27,1.11,0.6,1.73,0.96c0.42,0.27,0.86,0.56,1.32,0.87c0.15,0.11,0.31,0.21,0.47,0.32
			c0.26,0.17,0.51,0.35,0.77,0.55c0.27,0.18,0.53,0.38,0.79,0.58c0.28,0.19,0.54,0.39,0.81,0.6c0.3,0.23,0.61,0.48,0.92,0.72
			c0.3,0.24,0.61,0.5,0.9,0.74c0.03-1.16,0.06-2.39,0.1-3.73C-1439.491,212.486-1443.261,200.756-1444.131,198.726z
			 M-1528.202,207.966c-2.56,7.07-15.05,12.43-30.09,12.43c-15.03,0-27.52-5.36-30.08-12.43c-0.32-0.9-0.48-1.83-0.48-2.77
			c0-0.1,0-0.21,0.01-0.31c0.42-8.17,13.93-14.74,30.55-14.74c16.63,0,30.14,6.57,30.56,14.74c0.01,0.1,0.01,0.21,0.01,0.31
			C-1527.722,206.136-1527.881,207.066-1528.202,207.966z"/>
	</g>
	<g class="st1">
		<g>
			<path d="M-1594.117,329.422c-0.569,0.204-1.168,0.307-1.752,0.307c-1.956,0-3.796-1.124-4.643-2.993
				c-4.964-10.921-9.592-10.702-12.745-10.541c-5.11,0.248-9.213,6.599-11.476,11.402c-1.066,2.278-3.694,3.387-6.103,2.628
				l-0.029-0.015c-2.935-0.905-4.424-4.176-3.139-6.964c3.037-6.585,9.446-16.731,20.235-17.257
				c10.059-0.496,17.14,4.657,22.557,16.556C-1589.985,325.232-1591.343,328.4-1594.117,329.422z"/>
		</g>
	</g>
	<g class="st1">
		<g>
			<path d="M-1486.677,329.699c-0.569,0.219-1.168,0.307-1.752,0.307c-1.942,0-3.796-1.124-4.643-2.993
				c-4.949-10.921-9.577-10.702-12.746-10.541c-5.095,0.248-9.212,6.599-11.461,11.402c-1.08,2.278-3.708,3.387-6.103,2.628h-0.044
				c-2.92-0.92-4.424-4.19-3.139-6.979c3.037-6.585,9.461-16.731,20.25-17.257c10.059-0.496,17.125,4.657,22.557,16.556
				C-1482.531,325.509-1483.889,328.677-1486.677,329.699z"/>
		</g>
	</g>
	<g class="st1">
		<path class="st13" d="M-1528.637,283.885c-7.577,4.716-13.709,11.548-17.534,19.666l-23.184-0.394
			c-4.365-9.446-11.811-17.184-21.053-21.914c5.095-1.124,10.118-1.942,14.906-2.365c2.263-0.19,8.351-0.599,15.987-0.234
			C-1549.252,279.126-1539.368,280.79-1528.637,283.885z"/>
		<polygon points="-1541.544,303.624 -1541.573,305.727 -1541.573,305.741 -1541.719,313.844 -1544.39,313.8 -1549.603,313.713 
			-1565.998,313.435 -1571.225,313.348 -1571.546,313.348 -1571.531,312.107 -1571.531,312.077 -1571.371,303.128 
			-1569.356,303.157 -1546.172,303.551 		"/>
	</g>
	<g class="st1">
		<polygon points="-1659.437,356.534 -1661.364,356.811 -1661.378,356.811 -1662.152,356.913 -1661.393,356.797 		"/>
	</g>
	<g>
		<path class="st1" d="M-521.698-144.98c-1.095,24.717-16.614,37.186-28.572,41.974c-25.622,63.888-75.641,79.291-113.791,80.737
			l-0.292,0.015l-0.292-0.015c-48.982-3.241-75.773-26.805-89.614-45.989c-9.023-12.497-13.797-24.659-16.206-32.528
			c-12.804-3.606-32.47-15.972-33.726-43.201c-0.613-13.213,6.804-20.367,13.666-23.608c0.233,3.913,1.212,7.387,3.343,9.869
			c-3.197,1.927-6.614,5.752-6.263,13.286c1.153,25.024,20.513,32.309,26.688,34.003l-0.759,0.117l0.774-0.102h0.015l1.927-0.277
			c1.343-0.19,2.613,0.613,2.905,1.854c1.285,5.475,5.519,20.367,16.512,35.477c18.177,24.98,45.434,38.894,80.999,41.347
			c0.117,0.015,0.234,0.015,0.365,0.015c51.231-2.102,86.606-28.207,105.206-77.612c0.015-0.015,0.015-0.015,0.015-0.029
			c0.19-0.496,0.38-1.007,0.569-1.518l0.015-0.015c0.847-0.219,2.234-0.613,3.942-1.285c7.548-2.978,21.403-11.373,22.352-32.966
			c0.307-6.774-2.307-10.556-5.051-12.658c2.453-2.511,3.708-5.796,4.161-9.461C-526.881-163.916-521.172-156.923-521.698-144.98z"
			/>
		<polygon class="st1" points="-766.74,-110.423 -767.514,-110.321 -766.755,-110.437 		"/>
	</g>
	<g>
		<path class="st34" d="M-536.969-158.091c-0.117,0.146-0.263,0.292-0.409,0.423c-5.051,4.759-12.133,4.132-18.951,3.066
			c-2.964-0.467-5.767-0.993-8.409-1.606c1.08,3.927,1.664,8.074,1.664,12.337c0,25.608-20.848,46.456-46.456,46.456
			c-25.623,0-46.457-20.848-46.457-46.456c0-3.314,0.35-6.541,1.022-9.65l-16.396-0.277c0.613,2.964,0.92,6.044,0.92,9.183
			c0,25.608-20.834,46.456-46.442,46.456c-25.623,0-46.457-20.848-46.457-46.456c0-4.906,0.759-9.636,2.175-14.074
			c-0.219,0.161-0.423,0.307-0.628,0.453l-0.19,0.131c-2.044,1.475-7.534,5.431-13.972,5.431c-1.358,0-2.76-0.175-4.176-0.584
			c-0.569-0.161-3.665-1.139-6.336-3.694c-0.263-0.248-0.496-0.496-0.715-0.774c-3.197,1.927-6.614,5.752-6.263,13.286
			c1.153,25.024,20.513,32.309,26.688,34.003l1.956-0.263c1.343-0.19,2.613,0.613,2.905,1.854
			c1.285,5.475,5.519,20.367,16.512,35.477c18.177,24.98,45.434,38.894,80.999,41.347c0.117,0.015,0.234,0.015,0.365,0.015
			c51.231-2.102,86.606-28.207,105.206-77.612c0.015-0.015,0.015-0.015,0.015-0.029c0.19-0.496,0.38-1.007,0.569-1.518l0.015-0.015
			c0.847-0.219,2.234-0.613,3.942-1.285c7.548-2.978,21.403-11.373,22.352-32.966C-531.611-152.207-534.224-155.989-536.969-158.091
			z M-629.999-67.602c-4.555,5.606-13.928,13.636-30.338,14.016c-0.35,0-0.715,0.015-1.08,0.015
			c-16.118,0-25.71-8.322-30.382-14.016c-2.088-2.54-1.314-6.351,1.621-7.825l0.015-0.015c2.117-1.066,4.701-0.555,6.205,1.285
			c3.358,4.103,10.702,10.57,23.403,10.337c12.556-0.277,19.476-6.336,22.644-10.249c1.475-1.825,4.015-2.38,6.132-1.372
			c1.883,0.891,2.92,2.73,2.92,4.614C-628.86-69.69-629.225-68.551-629.999-67.602z"/>
		<path d="M-628.86-70.814c0,1.124-0.365,2.263-1.139,3.212c-4.555,5.606-13.928,13.636-30.338,14.016
			c-0.35,0-0.715,0.015-1.08,0.015c-16.118,0-25.71-8.322-30.382-14.016c-2.088-2.54-1.314-6.351,1.621-7.825l0.015-0.015
			c2.117-1.066,4.701-0.555,6.205,1.285c3.358,4.103,10.702,10.57,23.403,10.337c12.556-0.277,19.476-6.336,22.644-10.249
			c1.475-1.825,4.015-2.38,6.132-1.372C-629.896-74.537-628.86-72.697-628.86-70.814z"/>
	</g>
	<path class="st35" d="M-1527.718,205.197c0,8.643-13.68,15.651-30.572,15.651c-16.877,0-30.557-7.008-30.557-15.651
		s13.68-15.651,30.557-15.651C-1541.397,189.546-1527.718,196.554-1527.718,205.197z"/>
	<g class="st1">
		<path class="st36" d="M-1573.779,205.282l8.128-4.187v1.209l-6.85,3.433v0.035l6.85,3.434v1.208l-8.128-4.186V205.282z"/>
		<path class="st36" d="M-1560.797,211.115l4.888-12.699h1.19l-4.904,12.699H-1560.797z"/>
		<path class="st36" d="M-1541.773,206.246l-8.128,4.168v-1.208l6.901-3.434v-0.035l-6.901-3.433v-1.209l8.128,4.169V206.246z"/>
	</g>
	
		<image style="overflow:visible;opacity:0.21;" width="1000" height="750" xlink:href="6DB88912.jpg"  transform="matrix(0.7318 0 0 0.7318 -1026.9143 -439.2581)">
	</image>
</g>
<g id="first" class="st0">
	
		<rect x="-1124.575" y="-113.652" transform="matrix(-1.719770e-10 -1 1 -1.719770e-10 -1026.7838 -1200.6193)" class="st37" width="21.746" height="53.468"/>
	
		<rect x="-1124.575" y="-88.89" transform="matrix(-1.669579e-10 -1 1 -1.669579e-10 -1050.8264 -1176.5767)" class="st37" width="21.746" height="52.029"/>
	<rect x="-1753.361" y="-376.024" class="st22" width="400" height="400"/>
	<circle class="st38" cx="-1553.361" cy="-189.863" r="126.076"/>
	<rect x="-1565.482" y="-121.011" class="st39" width="24.241" height="108.859"/>
	<circle class="st40" cx="-1553.361" cy="-189.863" r="56.969"/>
	<path class="st41" d="M-1571.861-156.875l1.409,0.64c10.975,4.989,22.773,5.048,33.773,0.166l1.818-0.807"/>
</g>
<g id="Gnicoders">
	
		<radialGradient id="SVGID_00000021112863783166750970000003420565710308751802_" cx="-816.5101" cy="12" r="407.7308" gradientUnits="userSpaceOnUse">
		<stop  offset="0" style="stop-color:#1690C7"/>
		<stop  offset="0.7383" style="stop-color:#1152A1"/>
	</radialGradient>
	
		<rect x="-1026.744" y="-198.234" style="fill:url(#SVGID_00000021112863783166750970000003420565710308751802_);" width="420.468" height="420.468"/>
	<g>
		<path class="st4" d="M-757.988-103.294l0.231,36.631c-1.589-1.474-3.243-2.897-4.934-4.255c-0.077-0.064-0.141-0.115-0.218-0.179
			c-1.435-1.153-2.897-2.269-4.396-3.345c-0.167-0.128-0.346-0.244-0.513-0.372c-17.444-12.458-38.797-19.776-61.88-19.776
			c-41.181,0-76.876,23.301-94.614,57.458l-38.899-38.899c28.582-43.308,77.683-71.851,133.514-71.851
			c36.887,0,70.826,12.458,97.87,33.401c0.744,0.577,1.487,1.166,2.23,1.756c1.602,1.282,3.179,2.602,4.717,3.948
			c1.922,1.666,3.807,3.384,5.639,5.152c0.013,0.013,0.038,0.026,0.051,0.038L-757.988-103.294z"/>
		<path class="st4" d="M-688.753-37.075l-0.161-24.838c0.346,0.729,0.68,1.421,1.001,2.162c1.866,4.238,3.546,8.588,5.029,13.012
			c1.73,5.128,3.176,10.38,4.35,15.731l-53.185,0.321c0-0.012-0.012-0.025-0.012-0.037c-0.68-2.039-1.421-4.041-2.249-6.018"/>
		<path class="st4" d="M-669.808,11.994c0,9.062-0.756,17.956-2.204,26.621c-0.013,0.141-0.039,0.269-0.077,0.41
			c-3.602,21.276-11.42,41.117-22.545,58.624c-0.564,0.91-1.153,1.807-1.743,2.692c-3.896,5.87-8.177,11.471-12.791,16.765
			c-1.154,1.32-2.333,2.627-3.525,3.909c-0.833,0.897-1.679,1.782-2.551,2.653c-3.038,3.127-6.216,6.139-9.523,9.01
			c-0.09,0.077-0.166,0.154-0.256,0.231c-0.667,0.577-1.32,1.141-2,1.692c-27.774,23.276-63.572,37.284-102.676,37.284
			c-55.83,0-104.932-28.543-133.514-71.851l38.886-38.899c17.752,34.157,53.446,57.458,94.627,57.458
			c24.249,0,46.602-8.075,64.495-21.699c0.102-0.077,0.205-0.154,0.308-0.231c4.165-3.191,8.087-6.678,11.727-10.446
			c1.576-1.615,3.076-3.268,4.537-4.973c10.305-12.035,17.956-26.403,22.071-42.219h-81.708V-13.73h136.397
			C-670.513-5.36-669.808,3.24-669.808,11.994z"/>
		<path class="st4" d="M-745.227-90.615l0.207,32.802c-0.023-0.023-0.058-0.058-0.081-0.081c-0.84-0.921-1.703-1.807-2.59-2.682
			c-0.645-0.645-1.301-1.266-1.968-1.888c-0.23-0.219-0.472-0.437-0.714-0.656l-0.207-32.894l34.839-0.265
			c0.552,0.529,1.093,1.059,1.646,1.6c0.771,0.748,1.519,1.508,2.267,2.279c0.483,0.495,0.955,0.99,1.416,1.496
			c0.011,0.012,0.023,0.023,0.023,0.035L-745.227-90.615z"/>
		<path class="st15" d="M-701.095-49.84c0.011,1.769-1.412,3.212-3.181,3.225l-18.394,0.136l-6.244,0.047
			c-1.771,0.013-3.217-1.413-3.228-3.184l-0.074-11.72l-0.086-13.615c-0.011-1.769,1.413-3.212,3.181-3.225l14.659-0.107
			l9.979-0.076c1.771-0.013,3.218,1.413,3.229,3.184l0.104,16.652v0.024L-701.095-49.84z"/>
	</g>
</g>
<g id="G_favicon">
	<rect x="-572.946" y="-179.876" class="st4" width="375.548" height="383.753"/>
	<g>
		<path class="st14" d="M-326.651-103.294l0.231,36.631c-1.589-1.474-3.243-2.897-4.934-4.255c-0.077-0.064-0.141-0.115-0.218-0.179
			c-1.435-1.153-2.897-2.269-4.396-3.345c-0.167-0.128-0.346-0.244-0.513-0.372c-17.444-12.458-38.797-19.776-61.88-19.776
			c-41.181,0-76.876,23.301-94.614,57.458l-38.899-38.899c28.582-43.308,77.683-71.851,133.514-71.851
			c36.887,0,70.826,12.458,97.87,33.401c0.743,0.577,1.487,1.166,2.23,1.756c1.602,1.282,3.179,2.602,4.717,3.948
			c1.923,1.666,3.807,3.384,5.639,5.152c0.013,0.013,0.038,0.026,0.051,0.038L-326.651-103.294z"/>
		<path class="st14" d="M-257.416-37.075l-0.161-24.838c0.346,0.729,0.68,1.421,1.001,2.162c1.866,4.238,3.546,8.588,5.029,13.012
			c1.73,5.128,3.176,10.38,4.35,15.731l-53.185,0.321c0-0.012-0.012-0.025-0.012-0.037c-0.68-2.039-1.421-4.041-2.249-6.018"/>
		<path class="st14" d="M-238.47,11.994c0,9.062-0.756,17.956-2.204,26.621c-0.013,0.141-0.038,0.269-0.077,0.41
			c-3.602,21.276-11.42,41.117-22.545,58.624c-0.564,0.91-1.153,1.807-1.743,2.692c-3.896,5.87-8.177,11.471-12.791,16.765
			c-1.154,1.32-2.333,2.627-3.525,3.909c-0.833,0.897-1.679,1.782-2.551,2.653c-3.038,3.127-6.216,6.139-9.523,9.01
			c-0.09,0.077-0.166,0.154-0.256,0.231c-0.667,0.577-1.32,1.141-2,1.692c-27.774,23.276-63.572,37.284-102.676,37.284
			c-55.83,0-104.932-28.543-133.514-71.851l38.886-38.899c17.752,34.157,53.446,57.458,94.627,57.458
			c24.249,0,46.602-8.075,64.495-21.699c0.102-0.077,0.205-0.154,0.308-0.231c4.165-3.191,8.087-6.678,11.727-10.446
			c1.576-1.615,3.076-3.268,4.537-4.973c10.305-12.035,17.956-26.403,22.071-42.219h-81.708V-13.73h136.397
			C-239.175-5.36-238.47,3.24-238.47,11.994z"/>
		<path class="st14" d="M-313.889-90.615l0.207,32.802c-0.023-0.023-0.058-0.058-0.081-0.081c-0.84-0.921-1.703-1.807-2.59-2.682
			c-0.645-0.645-1.301-1.266-1.968-1.888c-0.23-0.219-0.472-0.437-0.714-0.656l-0.207-32.894l34.839-0.265
			c0.552,0.529,1.093,1.059,1.646,1.6c0.771,0.748,1.519,1.508,2.267,2.279c0.483,0.495,0.955,0.99,1.416,1.496
			c0.012,0.012,0.023,0.023,0.023,0.035L-313.889-90.615z"/>
		<path class="st15" d="M-269.757-49.84c0.011,1.769-1.412,3.212-3.181,3.225l-18.394,0.136l-6.244,0.047
			c-1.771,0.013-3.217-1.413-3.228-3.184l-0.074-11.72l-0.086-13.615c-0.011-1.769,1.413-3.212,3.181-3.225l14.659-0.107
			l9.979-0.076c1.771-0.013,3.218,1.413,3.229,3.184l0.104,16.652v0.024L-269.757-49.84z"/>
	</g>
</g>
<g id="small">
	<rect class="st43" width="24" height="24"/>
	<g>
		<path class="st14" d="M15.74,4.632l0.015,2.341c-0.102-0.094-0.207-0.185-0.315-0.272c-0.005-0.004-0.009-0.007-0.014-0.011
			c-0.092-0.074-0.185-0.145-0.281-0.214c-0.011-0.008-0.022-0.016-0.033-0.024c-1.115-0.796-2.479-1.264-3.955-1.264
			c-2.632,0-4.913,1.489-6.046,3.672L2.625,6.374c1.827-2.768,4.964-4.592,8.532-4.592c2.357,0,4.526,0.796,6.255,2.135
			c0.048,0.037,0.095,0.075,0.143,0.112c0.102,0.082,0.203,0.166,0.301,0.252c0.123,0.106,0.243,0.216,0.36,0.329
			c0.001,0.001,0.002,0.002,0.003,0.002L15.74,4.632z"/>
		<path class="st14" d="M20.165,8.864l-0.01-1.587c0.022,0.047,0.043,0.091,0.064,0.138c0.119,0.271,0.227,0.549,0.321,0.832
			c0.111,0.328,0.203,0.663,0.278,1.005l-3.399,0.021c0-0.001-0.001-0.002-0.001-0.002c-0.043-0.13-0.091-0.258-0.144-0.385"/>
		<path class="st14" d="M21.375,12c0,0.579-0.048,1.148-0.141,1.701c-0.001,0.009-0.002,0.017-0.005,0.026
			c-0.23,1.36-0.73,2.628-1.441,3.746c-0.036,0.058-0.074,0.115-0.111,0.172c-0.249,0.375-0.523,0.733-0.817,1.071
			c-0.074,0.084-0.149,0.168-0.225,0.25c-0.053,0.057-0.107,0.114-0.163,0.17c-0.194,0.2-0.397,0.392-0.609,0.576
			c-0.006,0.005-0.011,0.01-0.016,0.015c-0.043,0.037-0.084,0.073-0.128,0.108c-1.775,1.487-4.063,2.383-6.562,2.383
			c-3.568,0-6.706-1.824-8.532-4.592L5.11,15.14c1.134,2.183,3.416,3.672,6.047,3.672c1.55,0,2.978-0.516,4.122-1.387
			c0.007-0.005,0.013-0.01,0.02-0.015c0.266-0.204,0.517-0.427,0.749-0.668c0.101-0.103,0.197-0.209,0.29-0.318
			c0.659-0.769,1.148-1.687,1.41-2.698h-5.222v-3.371h8.717C21.33,10.891,21.375,11.44,21.375,12z"/>
		<path class="st14" d="M16.555,5.442l0.013,2.096c-0.001-0.001-0.004-0.004-0.005-0.005c-0.054-0.059-0.109-0.115-0.165-0.171
			c-0.041-0.041-0.083-0.081-0.126-0.121c-0.015-0.014-0.03-0.028-0.046-0.042l-0.013-2.102L18.44,5.08
			c0.035,0.034,0.07,0.068,0.105,0.102c0.049,0.048,0.097,0.096,0.145,0.146c0.031,0.032,0.061,0.063,0.09,0.096
			c0.001,0.001,0.001,0.001,0.001,0.002L16.555,5.442z"/>
		<path class="st15" d="M19.376,8.048c0.001,0.113-0.09,0.205-0.203,0.206l-1.175,0.009l-0.399,0.003
			c-0.113,0.001-0.206-0.09-0.206-0.203l-0.005-0.749l-0.006-0.87c-0.001-0.113,0.09-0.205,0.203-0.206l0.937-0.007l0.638-0.005
			c0.113-0.001,0.206,0.09,0.206,0.204l0.007,1.064v0.002L19.376,8.048z"/>
	</g>
	<g>
	</g>
	<g>
	</g>
	<g>
	</g>
	<g>
	</g>
	<g>
	</g>
	<g>
	</g>
</g>
</svg>
